M48
INCH
T68C0.110
T67C0.048
T66C0.125
T65C0.128
T64C0.030
T63C0.045
T62C0.038
T61C0.032
T60C0.020
%
T60
X023339Y009100
X025261Y009100
X008700Y005282
X004200Y009800
X004700Y010250
X008350Y006050
X008700Y006350
X008950Y010200
X009050Y006650
X009400Y006350
X009750Y006650
X010200Y006650
X010650Y006500
X011350Y006100
X011950Y006100
X003050Y003200
X002550Y003200
X008950Y011200
X009450Y011200
X009950Y011200
X009450Y010200
X009950Y010200
X014700Y008350
X014700Y008800
X013950Y011000
X013950Y011500
X013950Y012000
X014500Y012000
X014500Y011500
X019900Y009050
X019850Y009683
X019850Y010250
X022800Y007650
X022400Y007450
X022000Y007250
X021600Y007050
X021200Y006850
X020800Y006650
X020400Y006450
X020100Y006100
X019900Y008150
X026300Y012050
X026850Y012050
X026300Y011650
X026850Y011650
X026300Y011250
X026850Y011250
X026300Y010850
X026850Y010850
X022050Y011150
X023200Y007850
X024300Y010850
X021300Y010700
X024300Y008750
X021850Y010700
T64
X030300Y006000
X031300Y006500
X030300Y007000
X031300Y007500
X030300Y008000
X031300Y008500
X004700Y008500
X003700Y008000
X004700Y007500
X003700Y007000
X004700Y006500
X003700Y006000
T61
X027894Y009218
X028682Y009218
X027894Y008431
X027894Y007644
X028682Y008431
X028682Y007644
X027894Y006856
X027894Y006069
X027894Y005282
X028682Y006856
X028682Y006069
X028682Y005282
X007106Y005282
X007106Y006069
X006318Y005282
X006318Y006069
X007106Y006856
X007106Y007644
X006318Y006856
X006318Y007644
X007106Y008431
X007106Y009218
X006318Y008431
X006318Y009218
T62
X025250Y005150
X025250Y004150
X025250Y003150
X030900Y001500
X029900Y001500
X028900Y001500
X027900Y001500
X026900Y001500
X025900Y001500
X016500Y000950
X017500Y000950
X018500Y000950
X012800Y009950
X011800Y009950
X010800Y009950
X012800Y008950
X011800Y008950
X010800Y008950
T63
X022250Y003150
X021250Y003150
X020250Y003150
T67
X004950Y002300
X006950Y002300
T68
X010150Y003050
X012050Y004250
T66
X010150Y005450
T65
X033800Y005250
X033800Y009250
X001200Y009250
X001200Y005250
M30
