G04 start of page 3 for group 1 idx 1 *
G04 Title: (unknown), bottom *
G04 Creator: pcb 20110918 *
G04 CreationDate: Thu 15 May 2014 04:46:46 AM GMT UTC *
G04 For: railfan *
G04 Format: Gerber/RS-274X *
G04 PCB-Dimensions: 350000 125000 *
G04 PCB-Coordinate-Origin: lower left *
%MOIN*%
%FSLAX25Y25*%
%LNBOTTOM*%
%ADD58C,0.1100*%
%ADD57C,0.0480*%
%ADD56C,0.1250*%
%ADD55C,0.1280*%
%ADD54C,0.0300*%
%ADD53C,0.0450*%
%ADD52C,0.0380*%
%ADD51C,0.0320*%
%ADD50C,0.0200*%
%ADD49C,0.0360*%
%ADD48C,0.1500*%
%ADD47C,0.0800*%
%ADD46C,0.1750*%
%ADD45C,0.1440*%
%ADD44C,0.0787*%
%ADD43C,0.0600*%
%ADD42C,0.0520*%
%ADD41C,0.0700*%
%ADD40C,0.0100*%
%ADD39C,0.0500*%
%ADD38C,0.0001*%
G54D38*G36*
X136000Y123000D02*X271500D01*
Y106000D01*
X228121D01*
X223233Y110889D01*
X223274Y111061D01*
X223300Y111500D01*
X223274Y111939D01*
X223171Y112368D01*
X223003Y112775D01*
X222772Y113151D01*
X222486Y113486D01*
X222151Y113772D01*
X221775Y114003D01*
X221368Y114171D01*
X220939Y114274D01*
X220500Y114309D01*
X220061Y114274D01*
X219632Y114171D01*
X219225Y114003D01*
X218849Y113772D01*
X218514Y113486D01*
X218228Y113151D01*
X217997Y112775D01*
X217829Y112368D01*
X217726Y111939D01*
X217691Y111500D01*
X217726Y111061D01*
X217829Y110632D01*
X217997Y110225D01*
X218228Y109849D01*
X218277Y109791D01*
X218061Y109774D01*
X217632Y109671D01*
X217225Y109503D01*
X216849Y109272D01*
X216514Y108986D01*
X216228Y108651D01*
X215997Y108275D01*
X215829Y107868D01*
X215726Y107439D01*
X215691Y107000D01*
X215726Y106561D01*
X215829Y106132D01*
X215997Y105725D01*
X216135Y105500D01*
X144121D01*
X143102Y106519D01*
X143064Y106564D01*
X142884Y106717D01*
X142683Y106841D01*
X142465Y106931D01*
X142235Y106986D01*
X142235Y106986D01*
X142000Y107005D01*
X141941Y107000D01*
X136000D01*
Y123000D01*
G37*
G36*
X271500D02*Y106000D01*
X260000D01*
Y123000D01*
X271500D01*
G37*
G36*
X86500Y99500D02*Y114500D01*
X102500D01*
Y99500D01*
X86500D01*
G37*
G54D39*X252500Y41500D02*X265500D01*
X172000Y51500D02*X252500D01*
X290000Y46000D02*X293500Y49500D01*
X275000Y46000D02*X290000D01*
X271000Y50000D02*X275000Y46000D01*
X271500Y35500D02*X265500Y41500D01*
X305000Y35500D02*X271500D01*
X309000Y31500D02*X305000Y35500D01*
X309000Y15000D02*Y31500D01*
G54D40*X199032Y90532D02*X148968D01*
X224000Y74500D02*X222500Y76000D01*
X169000Y88000D02*X170000Y87000D01*
X168500Y83500D02*X170000Y85000D01*
X192000Y80000D02*X193500Y81500D01*
X226000Y85000D02*X227500Y83500D01*
Y104500D02*X220500Y111500D01*
X218500Y104000D02*Y107000D01*
X200500Y100500D02*X198500Y102500D01*
Y96831D02*X220331D01*
X222000Y98500D01*
X220000Y102500D02*X218500Y104000D01*
X229000Y81500D02*X193500D01*
X170000Y87000D02*X227000D01*
X170000Y85000D02*X226000D01*
X218500Y74000D02*X100000D01*
X214500Y72000D02*X103000D01*
X210500Y70000D02*X105500D01*
X206500Y68000D02*X109500D01*
X204000Y64500D02*X117000D01*
X201000Y61000D02*X118500D01*
X226500Y78000D02*X96000D01*
X222500Y76000D02*X97000D01*
X142000Y88000D02*X169000D01*
X142500Y83500D02*X168500D01*
X138000Y84000D02*X142000Y88000D01*
X141000Y82000D02*X142500Y83500D01*
X95000Y80000D02*X192000D01*
G54D39*X147500Y27000D02*X172000Y51500D01*
G54D40*X162000Y16000D02*X178500D01*
X185000Y9500D01*
G54D39*X120500Y27000D02*X147500D01*
X106000Y41500D02*X120500Y27000D01*
X91500Y41500D02*X106000D01*
X87000Y46000D02*X91500Y41500D01*
X71000Y52760D02*X71055Y52815D01*
X32000Y70000D02*X37000D01*
X29500Y67500D02*X32000Y70000D01*
X29500Y49500D02*Y67500D01*
X23000Y46500D02*Y85500D01*
G54D40*X42000Y98000D02*X79500D01*
X47000Y102500D02*X78000D01*
G54D39*X57689Y84311D02*X63181D01*
X49500Y92500D02*X57689Y84311D01*
X30000Y92500D02*X49500D01*
X23000Y85500D02*X30000Y92500D01*
X87000Y52815D02*Y46000D01*
G54D40*X83500Y68500D02*Y60500D01*
X87000Y69000D02*Y63500D01*
X79500Y98000D02*X95500Y82000D01*
X78000Y102500D02*X96500Y84000D01*
X95000Y80000D02*X83500Y68500D01*
X96000Y78000D02*X87000Y69000D01*
X90500Y69500D02*Y66500D01*
X97000Y76000D02*X90500Y69500D01*
X94000Y68000D02*Y63500D01*
X100000Y74000D02*X94000Y68000D01*
X103000Y72000D02*X97500Y66500D01*
X105500Y70000D02*X102000Y66500D01*
X109500Y68000D02*X106500Y65000D01*
X117000Y64500D02*X113500Y61000D01*
X95500Y82000D02*X141000D01*
X96500Y84000D02*X138000D01*
X114000Y105500D02*X108000Y99500D01*
X145500Y102000D02*X142000Y105500D01*
X145500Y94000D02*Y102000D01*
X148968Y90532D02*X145500Y94000D01*
X142000Y105500D02*X114000D01*
G54D39*X71000Y47000D02*Y52760D01*
X79500Y33000D02*X69500Y23000D01*
X79500Y56000D02*Y33000D01*
X74811Y60689D02*X79500Y56000D01*
X71055Y60689D02*X74811D01*
G54D40*X29500Y9500D02*X165000D01*
G54D39*X29500Y49500D02*X34500Y44500D01*
G54D40*X25500Y32000D02*Y13500D01*
X29500Y9500D01*
G54D39*X68500Y44500D02*X71000Y47000D01*
X34500Y44500D02*X68500D01*
X31500Y38000D02*X23000Y46500D01*
X79500Y38000D02*X31500D01*
G54D40*X30500Y32000D02*Y14000D01*
X33000Y11500D01*
X157500D01*
X162000Y16000D01*
G54D39*X271000Y81000D02*Y50000D01*
X293500Y57500D02*Y49500D01*
X290311Y60689D02*X293500Y57500D01*
X286819Y60689D02*X290311D01*
X274311Y84311D02*X271000Y81000D01*
X278945Y84311D02*X274311D01*
X252500Y76000D02*Y51500D01*
X268685Y92185D02*X252500Y76000D01*
X278945Y92185D02*X268685D01*
G54D40*X328000Y93500D02*X317000Y104500D01*
X324000Y91500D02*X315000Y100500D01*
X326000Y92500D02*X316000Y102500D01*
X267500Y96500D02*X301500D01*
X313000Y85000D01*
X322000Y90500D02*X314000Y98500D01*
X317000Y104500D02*X227500D01*
X315000Y100500D02*X200500D01*
X316000Y102500D02*X220000D01*
Y72500D02*X218500Y74000D01*
X216000Y70500D02*X214500Y72000D01*
X212000Y68500D02*X210500Y70000D01*
X208000Y66500D02*X206500Y68000D01*
X228000Y76500D02*X226500Y78000D01*
X232000Y78500D02*X229000Y81500D01*
X227000Y87000D02*X228500Y85500D01*
X227500Y83500D02*X254500D01*
X228500Y85500D02*X241000D01*
X243000Y87500D01*
X254500Y83500D02*X267500Y96500D01*
X222000Y98500D02*X314000D01*
X270000Y4000D02*X320000D01*
X286000Y8000D02*X318000D01*
X304000Y10000D02*X299000Y15000D01*
X317000Y10000D02*X304000D01*
X259000Y15000D02*X270000Y4000D01*
X279000Y15000D02*X286000Y8000D01*
X269000Y15000D02*X278000Y6000D01*
X328000Y12000D02*Y93500D01*
X324000Y14000D02*Y91500D01*
X322000Y90500D02*Y15000D01*
X326000Y13000D02*Y92500D01*
X278000Y6000D02*X319000D01*
X320000Y4000D02*X328000Y12000D01*
X318000Y8000D02*X324000Y14000D01*
X322000Y15000D02*X317000Y10000D01*
X319000Y6000D02*X326000Y13000D01*
G54D38*G36*
X229894Y94500D02*Y87500D01*
X236894D01*
Y94500D01*
X229894D01*
G37*
G54D41*X252606Y91000D03*
G54D38*G36*
X276345Y94785D02*Y89585D01*
X281545D01*
Y94785D01*
X276345D01*
G37*
G54D42*X286819Y92185D03*
G54D38*G36*
X249500Y54500D02*Y48500D01*
X255500D01*
Y54500D01*
X249500D01*
G37*
G54D43*X252500Y41500D03*
Y31500D03*
G54D44*X222500D03*
X212500D03*
G54D38*G36*
X198563Y35437D02*Y27563D01*
X206437D01*
Y35437D01*
X198563D01*
G37*
G54D42*X278945Y84311D03*
Y76437D03*
X286819Y84311D03*
Y76437D03*
X278945Y68563D03*
Y60689D03*
Y52815D03*
X286819Y68563D03*
Y60689D03*
Y52815D03*
G54D41*X303000Y60000D03*
X313000Y65000D03*
X303000Y70000D03*
X313000Y75000D03*
X303000Y80000D03*
X313000Y85000D03*
G54D45*X338000Y52500D03*
Y92500D03*
G54D38*G36*
X306000Y18000D02*Y12000D01*
X312000D01*
Y18000D01*
X306000D01*
G37*
G54D43*X299000Y15000D03*
X289000D03*
X279000D03*
X269000D03*
X259000D03*
G54D41*X47000Y85000D03*
X37000Y80000D03*
X47000Y75000D03*
X37000Y70000D03*
G54D45*X12000Y92500D03*
Y52500D03*
G54D41*X47000Y65000D03*
X37000Y60000D03*
G54D38*G36*
X68455Y55415D02*Y50215D01*
X73655D01*
Y55415D01*
X68455D01*
G37*
G54D42*X71055Y60689D03*
X63181Y52815D03*
Y60689D03*
G54D46*X101500Y54500D03*
G54D42*X71055Y68563D03*
Y76437D03*
X63181Y68563D03*
Y76437D03*
X71055Y84311D03*
Y92185D03*
X63181Y84311D03*
Y92185D03*
G54D38*G36*
X45500Y27000D02*Y19000D01*
X53500D01*
Y27000D01*
X45500D01*
G37*
G54D47*X69500Y23000D03*
G54D48*X101500Y30500D03*
X120500Y42500D03*
G54D38*G36*
X162000Y12500D02*Y6500D01*
X168000D01*
Y12500D01*
X162000D01*
G37*
G54D43*X175000Y9500D03*
X185000D03*
G54D38*G36*
X125000Y102500D02*Y96500D01*
X131000D01*
Y102500D01*
X125000D01*
G37*
G54D43*X118000Y99500D03*
X108000D03*
X128000Y89500D03*
X118000D03*
X108000D03*
G54D49*X87000Y52815D03*
X42000Y98000D03*
X47000Y102500D03*
X83500Y60500D03*
X87000Y63500D03*
X89500Y102000D03*
X90500Y66500D03*
X94000Y63500D03*
X97500Y66500D03*
X102000D03*
X106500Y65000D03*
X113500Y61000D03*
X119500D03*
X30500Y32000D03*
X25500D03*
X89500Y112000D03*
X94500D03*
X99500D03*
X94500Y102000D03*
X99500D03*
X147000Y83500D03*
Y88000D03*
X139500Y110000D03*
Y115000D03*
Y120000D03*
X145000D03*
Y115000D03*
X199000Y90500D03*
X198500Y96831D03*
Y102500D03*
X228000Y76500D03*
X224000Y74500D03*
X220000Y72500D03*
X216000Y70500D03*
X212000Y68500D03*
X208000Y66500D03*
X204000Y64500D03*
X201000Y61000D03*
X199000Y81500D03*
X263000Y120500D03*
X268500D03*
X263000Y116500D03*
X268500D03*
X263000Y112500D03*
X268500D03*
X263000Y108500D03*
X268500D03*
X220500Y111500D03*
X232000Y78500D03*
X243000Y108500D03*
X213000Y107000D03*
X243000Y87500D03*
X218500Y107000D03*
G54D50*G54D51*G54D52*G54D53*G54D51*G54D54*G54D55*G54D52*G54D54*G54D55*G54D54*G54D51*G54D56*G54D51*G54D57*G54D58*G54D52*M02*
