G04 start of page 8 for group -4079 idx -4079 *
G04 Title: (unknown), topsilk *
G04 Creator: pcb 20110918 *
G04 CreationDate: Thu 15 May 2014 04:46:46 AM GMT UTC *
G04 For: railfan *
G04 Format: Gerber/RS-274X *
G04 PCB-Dimensions: 350000 125000 *
G04 PCB-Coordinate-Origin: lower left *
%MOIN*%
%FSLAX25Y25*%
%LNTOPSILK*%
%ADD94C,0.0080*%
%ADD93C,0.0100*%
G54D93*X349500Y124500D02*Y500D01*
X289000Y10000D02*Y7000D01*
X287000D02*X291000D01*
X288000Y5500D02*X290000D01*
X288500Y4000D02*X289500D01*
X500Y500D02*X349500D01*
X500D02*Y124500D01*
X349500D01*
G54D94*X66500Y7000D02*X67000Y6500D01*
X65000Y7000D02*X66500D01*
X64500Y6500D02*X65000Y7000D01*
X64500Y6500D02*Y3500D01*
X65000Y3000D01*
X66500D01*
X67000Y3500D01*
Y4500D02*Y3500D01*
X66500Y5000D02*X67000Y4500D01*
X65500Y5000D02*X66500D01*
X68200Y7000D02*Y3000D01*
Y7000D02*X70700Y3000D01*
Y7000D02*Y3000D01*
X72400Y7000D02*Y3000D01*
X73700Y7000D02*X74400Y6300D01*
Y3700D01*
X73700Y3000D02*X74400Y3700D01*
X71900Y3000D02*X73700D01*
X71900Y7000D02*X73700D01*
X45500D02*X46500Y3000D01*
X47500Y7000D01*
X48700D02*X49700D01*
X49200D02*Y3000D01*
X48700D02*X49700D01*
X50900Y7000D02*Y3000D01*
Y7000D02*X53400Y3000D01*
Y7000D02*Y3000D01*
X5000Y120500D02*X6000D01*
X5500D02*Y116500D01*
X5000D02*X6000D01*
X7200Y118000D02*Y117000D01*
Y118000D02*X7700Y118500D01*
X8700D01*
X9200Y118000D01*
Y117000D01*
X8700Y116500D02*X9200Y117000D01*
X7700Y116500D02*X8700D01*
X7200Y117000D02*X7700Y116500D01*
X10400Y118500D02*Y117000D01*
X10900Y116500D01*
X11400D01*
X11900Y117000D01*
Y118500D02*Y117000D01*
X12400Y116500D01*
X12900D01*
X13400Y117000D01*
Y118500D02*Y117000D01*
X16100Y118500D02*X16600Y118000D01*
X15100Y118500D02*X16100D01*
X14600Y118000D02*X15100Y118500D01*
X14600Y118000D02*Y117000D01*
X15100Y116500D01*
X16600Y118500D02*Y117000D01*
X17100Y116500D01*
X15100D02*X16100D01*
X16600Y117000D01*
X22100Y120500D02*X22600Y120000D01*
X20600Y120500D02*X22100D01*
X20100Y120000D02*X20600Y120500D01*
X20100Y120000D02*Y119000D01*
X20600Y118500D01*
X22100D01*
X22600Y118000D01*
Y117000D01*
X22100Y116500D02*X22600Y117000D01*
X20600Y116500D02*X22100D01*
X20100Y117000D02*X20600Y116500D01*
X24300Y118500D02*X25800D01*
X23800Y118000D02*X24300Y118500D01*
X23800Y118000D02*Y117000D01*
X24300Y116500D01*
X25800D01*
X28500Y118500D02*X29000Y118000D01*
X27500Y118500D02*X28500D01*
X27000Y118000D02*X27500Y118500D01*
X27000Y118000D02*Y117000D01*
X27500Y116500D01*
X29000Y118500D02*Y117000D01*
X29500Y116500D01*
X27500D02*X28500D01*
X29000Y117000D01*
X30700Y120500D02*Y117000D01*
X31200Y116500D01*
X32700D02*X34200D01*
X32200Y117000D02*X32700Y116500D01*
X32200Y118000D02*Y117000D01*
Y118000D02*X32700Y118500D01*
X33700D01*
X34200Y118000D01*
X32200Y117500D02*X34200D01*
Y118000D02*Y117500D01*
X37400Y120500D02*Y116500D01*
X36900D02*X37400Y117000D01*
X35900Y116500D02*X36900D01*
X35400Y117000D02*X35900Y116500D01*
X35400Y118000D02*Y117000D01*
Y118000D02*X35900Y118500D01*
X36900D01*
X37400Y118000D01*
X40400Y118700D02*X41900D01*
X40400Y116500D02*X42400D01*
X40400Y120500D02*Y116500D01*
Y120500D02*X42400D01*
X44100Y118000D02*Y116500D01*
Y118000D02*X44600Y118500D01*
X45100D01*
X45600Y118000D01*
Y116500D01*
X43600Y118500D02*X44100Y118000D01*
X48300Y118500D02*X48800Y118000D01*
X47300Y118500D02*X48300D01*
X46800Y118000D02*X47300Y118500D01*
X46800Y118000D02*Y117000D01*
X47300Y116500D01*
X48300D01*
X48800Y117000D01*
X46800Y115500D02*X47300Y115000D01*
X48300D01*
X48800Y115500D01*
Y118500D02*Y115500D01*
X50000Y119500D02*Y119400D01*
Y118000D02*Y116500D01*
X51500Y118000D02*Y116500D01*
Y118000D02*X52000Y118500D01*
X52500D01*
X53000Y118000D01*
Y116500D01*
X51000Y118500D02*X51500Y118000D01*
X54700Y116500D02*X56200D01*
X54200Y117000D02*X54700Y116500D01*
X54200Y118000D02*Y117000D01*
Y118000D02*X54700Y118500D01*
X55700D01*
X56200Y118000D01*
X54200Y117500D02*X56200D01*
Y118000D02*Y117500D01*
X57900Y116500D02*X59400D01*
X57400Y117000D02*X57900Y116500D01*
X57400Y118000D02*Y117000D01*
Y118000D02*X57900Y118500D01*
X58900D01*
X59400Y118000D01*
X57400Y117500D02*X59400D01*
Y118000D02*Y117500D01*
X61100Y118000D02*Y116500D01*
Y118000D02*X61600Y118500D01*
X62600D01*
X60600D02*X61100Y118000D01*
X63800Y119500D02*Y119400D01*
Y118000D02*Y116500D01*
X65300Y118000D02*Y116500D01*
Y118000D02*X65800Y118500D01*
X66300D01*
X66800Y118000D01*
Y116500D01*
X64800Y118500D02*X65300Y118000D01*
X69500Y118500D02*X70000Y118000D01*
X68500Y118500D02*X69500D01*
X68000Y118000D02*X68500Y118500D01*
X68000Y118000D02*Y117000D01*
X68500Y116500D01*
X69500D01*
X70000Y117000D01*
X68000Y115500D02*X68500Y115000D01*
X69500D01*
X70000Y115500D01*
Y118500D02*Y115500D01*
X87500Y120500D02*X88500D01*
X88000D02*Y116500D01*
X87500D02*X88500D01*
X89700Y120000D02*X90200Y120500D01*
X91700D01*
X92200Y120000D01*
Y119000D01*
X89700Y116500D02*X92200Y119000D01*
X89700Y116500D02*X92200D01*
X94100D02*X95400D01*
X93400Y117200D02*X94100Y116500D01*
X93400Y119800D02*Y117200D01*
Y119800D02*X94100Y120500D01*
X95400D01*
X96600Y118500D02*X98600D01*
X99800Y120500D02*X100800Y116500D01*
X101800Y120500D01*
X103000D02*Y116500D01*
Y120500D02*X105000D01*
X103000Y118700D02*X104500D01*
X106700Y120500D02*Y116500D01*
X108000Y120500D02*X108700Y119800D01*
Y117200D01*
X108000Y116500D02*X108700Y117200D01*
X106200Y116500D02*X108000D01*
X106200Y120500D02*X108000D01*
X111700Y118500D02*X112700Y116500D01*
X113700Y118500D02*X112700Y116500D01*
X114900Y119700D02*X115700Y120500D01*
Y116500D01*
X114900D02*X116400D01*
X117600D02*X118100D01*
X119300Y117000D02*X119800Y116500D01*
X119300Y120000D02*Y117000D01*
Y120000D02*X119800Y120500D01*
X120800D01*
X121300Y120000D01*
Y117000D01*
X120800Y116500D02*X121300Y117000D01*
X119800Y116500D02*X120800D01*
X119300Y117500D02*X121300Y119500D01*
X5000Y112000D02*Y108000D01*
Y109500D02*X5500Y110000D01*
X6500D01*
X7000Y109500D01*
Y108000D01*
X8700Y112000D02*Y108500D01*
X9200Y108000D01*
X8200Y110500D02*X9200D01*
X10700Y112000D02*Y108500D01*
X11200Y108000D01*
X10200Y110500D02*X11200D01*
X12700Y109500D02*Y106500D01*
X12200Y110000D02*X12700Y109500D01*
X13200Y110000D01*
X14200D01*
X14700Y109500D01*
Y108500D01*
X14200Y108000D02*X14700Y108500D01*
X13200Y108000D02*X14200D01*
X12700Y108500D02*X13200Y108000D01*
X15900Y110500D02*X16400D01*
X15900Y109500D02*X16400D01*
X17600Y108500D02*X20600Y111500D01*
X21800Y108500D02*X24800Y111500D01*
X26000Y111000D02*Y110900D01*
Y109500D02*Y108000D01*
X28500Y110000D02*X29000Y109500D01*
X27500Y110000D02*X28500D01*
X27000Y109500D02*X27500Y110000D01*
X27000Y109500D02*Y108500D01*
X27500Y108000D01*
X29000Y110000D02*Y108500D01*
X29500Y108000D01*
X27500D02*X28500D01*
X29000Y108500D01*
X31200Y108000D02*X32700D01*
X33200Y108500D01*
X32700Y109000D02*X33200Y108500D01*
X31200Y109000D02*X32700D01*
X30700Y109500D02*X31200Y109000D01*
X30700Y109500D02*X31200Y110000D01*
X32700D01*
X33200Y109500D01*
X30700Y108500D02*X31200Y108000D01*
X34900Y110000D02*X36400D01*
X34400Y109500D02*X34900Y110000D01*
X34400Y109500D02*Y108500D01*
X34900Y108000D01*
X36400D01*
X39100Y110000D02*X39600Y109500D01*
X38100Y110000D02*X39100D01*
X37600Y109500D02*X38100Y110000D01*
X37600Y109500D02*Y108500D01*
X38100Y108000D01*
X39600Y110000D02*Y108500D01*
X40100Y108000D01*
X38100D02*X39100D01*
X39600Y108500D01*
X41300Y112000D02*Y108500D01*
X41800Y108000D01*
X43300D02*X44800D01*
X42800Y108500D02*X43300Y108000D01*
X42800Y109500D02*Y108500D01*
Y109500D02*X43300Y110000D01*
X44300D01*
X44800Y109500D01*
X42800Y109000D02*X44800D01*
Y109500D02*Y109000D01*
X48000Y112000D02*Y108000D01*
X47500D02*X48000Y108500D01*
X46500Y108000D02*X47500D01*
X46000Y108500D02*X46500Y108000D01*
X46000Y109500D02*Y108500D01*
Y109500D02*X46500Y110000D01*
X47500D01*
X48000Y109500D01*
X49200Y108000D02*X49700D01*
X51400Y110000D02*X52900D01*
X50900Y109500D02*X51400Y110000D01*
X50900Y109500D02*Y108500D01*
X51400Y108000D01*
X52900D01*
X54100Y109500D02*Y108500D01*
Y109500D02*X54600Y110000D01*
X55600D01*
X56100Y109500D01*
Y108500D01*
X55600Y108000D02*X56100Y108500D01*
X54600Y108000D02*X55600D01*
X54100Y108500D02*X54600Y108000D01*
X57800Y109500D02*Y108000D01*
Y109500D02*X58300Y110000D01*
X58800D01*
X59300Y109500D01*
Y108000D01*
Y109500D02*X59800Y110000D01*
X60300D01*
X60800Y109500D01*
Y108000D01*
X57300Y110000D02*X57800Y109500D01*
X260000Y31500D02*Y29500D01*
Y31500D02*X260500Y32000D01*
X261500D01*
X262000Y31500D02*X261500Y32000D01*
X262000Y31500D02*Y30000D01*
X260000D02*X264000D01*
X262000Y30800D02*X264000Y32000D01*
X261800Y34700D02*Y33200D01*
X264000Y35200D02*Y33200D01*
X260000D02*X264000D01*
X260000Y35200D02*Y33200D01*
Y38400D02*X260500Y38900D01*
X260000Y38400D02*Y36900D01*
X260500Y36400D02*X260000Y36900D01*
X260500Y36400D02*X263500D01*
X264000Y36900D01*
Y38400D02*Y36900D01*
Y38400D02*X263500Y38900D01*
X262500D02*X263500D01*
X262000Y38400D02*X262500Y38900D01*
X262000Y38400D02*Y37400D01*
X260000Y46500D02*Y45500D01*
Y46000D02*X264000D01*
Y46500D02*Y45500D01*
X260500Y47700D02*X260000Y48200D01*
Y49700D02*Y48200D01*
Y49700D02*X260500Y50200D01*
X261500D01*
X264000Y47700D02*X261500Y50200D01*
X264000D02*Y47700D01*
Y53400D02*Y52100D01*
X263300Y51400D02*X264000Y52100D01*
X260700Y51400D02*X263300D01*
X260700D02*X260000Y52100D01*
Y53400D02*Y52100D01*
X299700Y116500D02*X301000D01*
X299000Y117200D02*X299700Y116500D01*
X299000Y119800D02*Y117200D01*
Y119800D02*X299700Y120500D01*
X301000D01*
X302900Y116500D02*X304200D01*
X302200Y117200D02*X302900Y116500D01*
X302200Y119800D02*Y117200D01*
Y119800D02*X302900Y120500D01*
X304200D01*
X307200Y116500D02*X309200D01*
X309700Y117000D01*
Y118200D02*Y117000D01*
X309200Y118700D02*X309700Y118200D01*
X307700Y118700D02*X309200D01*
X307700Y120500D02*Y116500D01*
X307200Y120500D02*X309200D01*
X309700Y120000D01*
Y119200D01*
X309200Y118700D02*X309700Y119200D01*
X310900Y120500D02*X311900Y118500D01*
X312900Y120500D01*
X311900Y118500D02*Y116500D01*
X314100Y118500D02*X316100D01*
X319300Y120500D02*X319800Y120000D01*
X317800Y120500D02*X319300D01*
X317300Y120000D02*X317800Y120500D01*
X317300Y120000D02*Y119000D01*
X317800Y118500D01*
X319300D01*
X319800Y118000D01*
Y117000D01*
X319300Y116500D02*X319800Y117000D01*
X317800Y116500D02*X319300D01*
X317300Y117000D02*X317800Y116500D01*
X321000Y119500D02*Y116500D01*
Y119500D02*X321700Y120500D01*
X322800D01*
X323500Y119500D01*
Y116500D01*
X321000Y118500D02*X323500D01*
X326500Y117000D02*X327000Y116500D01*
X326500Y120000D02*X327000Y120500D01*
X326500Y120000D02*Y117000D01*
X328900Y116500D02*X330200D01*
X328200Y117200D02*X328900Y116500D01*
X328200Y119800D02*Y117200D01*
Y119800D02*X328900Y120500D01*
X330200D01*
X331400D02*X331900Y120000D01*
Y117000D01*
X331400Y116500D02*X331900Y117000D01*
X333100Y120000D02*X333600Y120500D01*
X335100D01*
X335600Y120000D01*
Y119000D01*
X333100Y116500D02*X335600Y119000D01*
X333100Y116500D02*X335600D01*
X336800Y117000D02*X337300Y116500D01*
X336800Y120000D02*Y117000D01*
Y120000D02*X337300Y120500D01*
X338300D01*
X338800Y120000D01*
Y117000D01*
X338300Y116500D02*X338800Y117000D01*
X337300Y116500D02*X338300D01*
X336800Y117500D02*X338800Y119500D01*
X340000Y119700D02*X340800Y120500D01*
Y116500D01*
X340000D02*X341500D01*
X342700Y118000D02*X344700Y120500D01*
X342700Y118000D02*X345200D01*
X344700Y120500D02*Y116500D01*
X307300Y4000D02*X310500Y4800D01*
X307300Y5600D01*
X308900Y8160D02*Y6560D01*
X308100Y7360D02*X309700D01*
X297300Y5100D02*Y3500D01*
Y5100D02*X297700Y5500D01*
X298500D01*
X298900Y5100D02*X298500Y5500D01*
X298900Y5100D02*Y3900D01*
X297300D02*X300500D01*
X298900Y4540D02*X300500Y5500D01*
Y6460D02*X297300Y8460D01*
Y6460D02*X300500Y8460D01*
X280500Y4600D02*Y3000D01*
Y4600D02*X280100Y5000D01*
X279140D02*X280100D01*
X278740Y4600D02*X279140Y5000D01*
X278740Y4600D02*Y3400D01*
X277300D02*X280500D01*
X277300Y4600D02*Y3000D01*
Y4600D02*X277700Y5000D01*
X278340D01*
X278740Y4600D02*X278340Y5000D01*
X277300Y7560D02*X277700Y7960D01*
X277300Y7560D02*Y6360D01*
X277700Y5960D02*X277300Y6360D01*
X277700Y5960D02*X278500D01*
X278900Y6360D01*
Y7560D02*Y6360D01*
Y7560D02*X279300Y7960D01*
X280100D01*
X280500Y7560D02*X280100Y7960D01*
X280500Y7560D02*Y6360D01*
X280100Y5960D02*X280500Y6360D01*
X277300Y8920D02*X278900Y9720D01*
X277300Y10520D01*
X278900Y9720D02*X280500D01*
X257300Y4600D02*Y3000D01*
Y4600D02*X257700Y5000D01*
X258500D01*
X258900Y4600D02*X258500Y5000D01*
X258900Y4600D02*Y3400D01*
X257300D02*X260500D01*
X258900Y4040D02*X260500Y5000D01*
X257300Y7560D02*X257700Y7960D01*
X257300Y7560D02*Y6360D01*
X257700Y5960D02*X257300Y6360D01*
X257700Y5960D02*X258500D01*
X258900Y6360D01*
Y7560D02*Y6360D01*
Y7560D02*X259300Y7960D01*
X260100D01*
X260500Y7560D02*X260100Y7960D01*
X260500Y7560D02*Y6360D01*
X260100Y5960D02*X260500Y6360D01*
X257300Y10520D02*Y8920D01*
Y9720D02*X260500D01*
G54D93*X148607Y105745D02*X149393D01*
X148607Y111255D02*X149393D01*
X137508Y44992D02*Y38496D01*
Y25504D02*Y19008D01*
X156996D01*
X137508Y44992D02*X156996D01*
Y19008D02*X163492Y25504D01*
X156996Y44992D02*X163492Y38496D01*
X156500Y42000D02*Y38000D01*
X154500Y40000D02*X158500D01*
X137718Y58976D02*X157418D01*
X137718Y50976D02*X157418D01*
Y58976D02*Y50976D01*
X137718Y58976D02*Y50976D01*
X150618Y58976D02*Y50976D01*
X52300Y98500D02*Y46500D01*
X29000Y98500D02*X52300D01*
X29000Y46500D02*X52300D01*
X79126Y46122D02*Y98878D01*
X55110D02*X79126D01*
X55110Y46122D02*Y98878D01*
Y46122D02*X79126D01*
Y52122D02*X73126Y46122D01*
X39500Y10200D02*X79500D01*
X39500Y40200D02*X79500D01*
X39500Y35800D02*X79500D01*
X39500Y40200D02*Y10200D01*
X79500Y40200D02*Y10200D01*
X118500Y30500D02*Y1000D01*
X84500D02*X118500D01*
X84500Y57000D02*Y1000D01*
Y57000D02*X89500D01*
X118500D02*Y53000D01*
X113500Y57000D02*X118500D01*
X84500Y1000D02*X118500D01*
X84500Y1500D02*X118500D01*
X84500Y2000D02*X118500D01*
X84500Y2500D02*X118500D01*
X84500Y3000D02*X118500D01*
X84500Y3500D02*X118500D01*
X84500Y4000D02*X118500D01*
X84500Y4500D02*X118500D01*
X84500Y14000D02*X118500D01*
X84500Y13500D02*X118500D01*
X84500Y13000D02*X118500D01*
X84500Y12500D02*X118500D01*
X84500Y12000D02*X118500D01*
X84500Y11500D02*X118500D01*
X84500Y11000D02*X118500D01*
X84500Y10500D02*X118500D01*
X103000Y104500D02*X133000D01*
X103000D02*Y84500D01*
X133000D01*
Y104500D02*Y84500D01*
X123000Y104500D02*Y94500D01*
X133000D01*
X209107Y93255D02*X209893D01*
X209107Y87745D02*X209893D01*
X191745Y66393D02*Y65607D01*
X197255Y66393D02*Y65607D01*
X186879Y99436D02*Y75578D01*
X160121D02*X186879D01*
X160121Y102336D02*Y75578D01*
Y102336D02*X183979D01*
X186879Y99436D01*
X183979Y100436D02*G75*G03X183979Y100436I0J-1000D01*G01*
X234107Y111255D02*X234893D01*
X234107Y105745D02*X234893D01*
X251107D02*X251893D01*
X251107Y111255D02*X251893D01*
X209107Y103255D02*X209893D01*
X209107Y97745D02*X209893D01*
X230008Y81354D02*X255992D01*
X230008Y100646D02*X255992D01*
X230008D02*G75*G03X230008Y81354I0J-9646D01*G01*
X255992D02*G75*G03X255992Y100646I0J9646D01*G01*
X297700Y98500D02*Y46500D01*
X321000D01*
X297700Y98500D02*X321000D01*
X270874Y98878D02*Y46122D01*
X294890D01*
Y98878D01*
X270874D01*
Y92878D02*X276874Y98878D01*
X313607Y33755D02*X314393D01*
X313607Y28245D02*X314393D01*
X217107Y12245D02*X217893D01*
X217107Y17755D02*X217893D01*
X183314Y28468D02*Y24532D01*
X172686Y28468D02*Y24532D01*
X160000Y4500D02*X190000D01*
Y14500D02*Y4500D01*
X160000Y14500D02*X190000D01*
X160000D02*Y4500D01*
X170000Y14500D02*Y4500D01*
X160000Y14500D02*X170000D01*
X292638Y34740D02*X297362D01*
X292638Y27260D02*X297362D01*
X247500Y56500D02*Y26500D01*
X257500D01*
Y56500D02*Y26500D01*
X247500Y56500D02*X257500D01*
X247500Y46500D02*X257500D01*
Y56500D02*Y46500D01*
X189665Y23626D02*X235335D01*
X189665Y57090D02*X235335D01*
X189665D02*Y23626D01*
X235335Y57090D02*Y23626D01*
G54D94*X206350Y85650D02*X208350D01*
X208850Y85150D01*
Y84150D01*
X208350Y83650D02*X208850Y84150D01*
X206850Y83650D02*X208350D01*
X206850Y85650D02*Y81650D01*
X207650Y83650D02*X208850Y81650D01*
X210050Y85150D02*X210550Y85650D01*
X212050D01*
X212550Y85150D01*
Y84150D01*
X210050Y81650D02*X212550Y84150D01*
X210050Y81650D02*X212550D01*
X207318Y105158D02*X208618D01*
X206618Y105858D02*X207318Y105158D01*
X206618Y108458D02*Y105858D01*
Y108458D02*X207318Y109158D01*
X208618D01*
X209818D02*X211818D01*
X209818D02*Y107158D01*
X210318Y107658D01*
X211318D01*
X211818Y107158D01*
Y105658D01*
X211318Y105158D02*X211818Y105658D01*
X210318Y105158D02*X211318D01*
X209818Y105658D02*X210318Y105158D01*
X200089Y66973D02*X201389D01*
X199389Y67673D02*X200089Y66973D01*
X199389Y70273D02*Y67673D01*
Y70273D02*X200089Y70973D01*
X201389D01*
X202589Y67473D02*X203089Y66973D01*
X202589Y68273D02*Y67473D01*
Y68273D02*X203289Y68973D01*
X203889D01*
X204589Y68273D01*
Y67473D01*
X204089Y66973D02*X204589Y67473D01*
X203089Y66973D02*X204089D01*
X202589Y69673D02*X203289Y68973D01*
X202589Y70473D02*Y69673D01*
Y70473D02*X203089Y70973D01*
X204089D01*
X204589Y70473D01*
Y69673D01*
X203889Y68973D02*X204589Y69673D01*
X190543Y109950D02*Y106275D01*
X191068Y105750D01*
X192118D01*
X192643Y106275D01*
Y109950D02*Y106275D01*
X193903Y109110D02*X194743Y109950D01*
Y105750D01*
X193903D02*X195478D01*
X204200Y13000D02*X205500D01*
X203500Y13700D02*X204200Y13000D01*
X203500Y16300D02*Y13700D01*
Y16300D02*X204200Y17000D01*
X205500D01*
X208200D02*X208700Y16500D01*
X207200Y17000D02*X208200D01*
X206700Y16500D02*X207200Y17000D01*
X206700Y16500D02*Y13500D01*
X207200Y13000D01*
X208200Y15200D02*X208700Y14700D01*
X206700Y15200D02*X208200D01*
X207200Y13000D02*X208200D01*
X208700Y13500D01*
Y14700D02*Y13500D01*
X192700Y9000D02*X193500D01*
Y5500D01*
X193000Y5000D02*X193500Y5500D01*
X192500Y5000D02*X193000D01*
X192000Y5500D02*X192500Y5000D01*
X192000Y6000D02*Y5500D01*
X195200Y5000D02*X196700Y7000D01*
Y8500D02*Y7000D01*
X196200Y9000D02*X196700Y8500D01*
X195200Y9000D02*X196200D01*
X194700Y8500D02*X195200Y9000D01*
X194700Y8500D02*Y7500D01*
X195200Y7000D01*
X196700D01*
X232593Y113150D02*X233893D01*
X231893Y113850D02*X232593Y113150D01*
X231893Y116450D02*Y113850D01*
Y116450D02*X232593Y117150D01*
X233893D01*
X235093Y116650D02*X235593Y117150D01*
X236593D01*
X237093Y116650D01*
X236593Y113150D02*X237093Y113650D01*
X235593Y113150D02*X236593D01*
X235093Y113650D02*X235593Y113150D01*
Y115350D02*X236593D01*
X237093Y116650D02*Y115850D01*
Y114850D02*Y113650D01*
Y114850D02*X236593Y115350D01*
X237093Y115850D02*X236593Y115350D01*
X248964Y113150D02*X250264D01*
X248264Y113850D02*X248964Y113150D01*
X248264Y116450D02*Y113850D01*
Y116450D02*X248964Y117150D01*
X250264D01*
X251464Y114650D02*X253464Y117150D01*
X251464Y114650D02*X253964D01*
X253464Y117150D02*Y113150D01*
X241157Y79000D02*X242157Y77000D01*
X243157Y79000D01*
X242157Y77000D02*Y75000D01*
X244357Y78200D02*X245157Y79000D01*
Y75000D01*
X244357D02*X245857D01*
X249200Y62500D02*X250000D01*
Y59000D01*
X249500Y58500D02*X250000Y59000D01*
X249000Y58500D02*X249500D01*
X248500Y59000D02*X249000Y58500D01*
X248500Y59500D02*Y59000D01*
X251700Y62500D02*Y58500D01*
X251200Y62500D02*X253200D01*
X253700Y62000D01*
Y61000D01*
X253200Y60500D02*X253700Y61000D01*
X251700Y60500D02*X253200D01*
X254900Y61700D02*X255700Y62500D01*
Y58500D01*
X254900D02*X256400D01*
X229000Y63500D02*Y60000D01*
X229500Y59500D01*
X230500D01*
X231000Y60000D01*
Y63500D02*Y60000D01*
X232200Y63000D02*X232700Y63500D01*
X234200D01*
X234700Y63000D01*
Y62000D01*
X232200Y59500D02*X234700Y62000D01*
X232200Y59500D02*X234700D01*
X324920Y75094D02*X325720D01*
Y71594D01*
X325220Y71094D02*X325720Y71594D01*
X324720Y71094D02*X325220D01*
X324220Y71594D02*X324720Y71094D01*
X324220Y72094D02*Y71594D01*
X326920Y72594D02*X328920Y75094D01*
X326920Y72594D02*X329420D01*
X328920Y75094D02*Y71094D01*
X20574Y75094D02*X21374D01*
Y71594D01*
X20874Y71094D02*X21374Y71594D01*
X20374Y71094D02*X20874D01*
X19874Y71594D02*X20374Y71094D01*
X19874Y72094D02*Y71594D01*
X22574Y75094D02*X24574D01*
X22574D02*Y73094D01*
X23074Y73594D01*
X24074D01*
X24574Y73094D01*
Y71594D01*
X24074Y71094D02*X24574Y71594D01*
X23074Y71094D02*X24074D01*
X22574Y71594D02*X23074Y71094D01*
X144976Y65382D02*Y61382D01*
X146276Y65382D02*X146976Y64682D01*
Y62082D01*
X146276Y61382D02*X146976Y62082D01*
X144476Y61382D02*X146276D01*
X144476Y65382D02*X146276D01*
X148176Y64882D02*X148676Y65382D01*
X150176D01*
X150676Y64882D01*
Y63882D01*
X148176Y61382D02*X150676Y63882D01*
X148176Y61382D02*X150676D01*
X147050Y113150D02*X148350D01*
X146350Y113850D02*X147050Y113150D01*
X146350Y116450D02*Y113850D01*
Y116450D02*X147050Y117150D01*
X148350D01*
X150050Y113150D02*X152050Y117150D01*
X149550D02*X152050D01*
X65613Y105618D02*X66413D01*
Y102118D01*
X65913Y101618D02*X66413Y102118D01*
X65413Y101618D02*X65913D01*
X64913Y102118D02*X65413Y101618D01*
X64913Y102618D02*Y102118D01*
X68113Y101618D02*X70113Y105618D01*
X67613D02*X70113D01*
X96152Y96264D02*X96952D01*
Y92764D01*
X96452Y92264D02*X96952Y92764D01*
X95952Y92264D02*X96452D01*
X95452Y92764D02*X95952Y92264D01*
X95452Y93264D02*Y92764D01*
X98152Y95764D02*X98652Y96264D01*
X99652D01*
X100152Y95764D01*
X99652Y92264D02*X100152Y92764D01*
X98652Y92264D02*X99652D01*
X98152Y92764D02*X98652Y92264D01*
Y94464D02*X99652D01*
X100152Y95764D02*Y94964D01*
Y93964D02*Y92764D01*
Y93964D02*X99652Y94464D01*
X100152Y94964D02*X99652Y94464D01*
X310850Y39150D02*X312850D01*
X313350Y38650D01*
Y37650D01*
X312850Y37150D02*X313350Y37650D01*
X311350Y37150D02*X312850D01*
X311350Y39150D02*Y35150D01*
X312150Y37150D02*X313350Y35150D01*
X314550Y38350D02*X315350Y39150D01*
Y35150D01*
X314550D02*X316050D01*
X32700Y25000D02*X33500D01*
Y21500D01*
X33000Y21000D02*X33500Y21500D01*
X32500Y21000D02*X33000D01*
X32000Y21500D02*X32500Y21000D01*
X32000Y22000D02*Y21500D01*
X34700Y24200D02*X35500Y25000D01*
Y21000D01*
X34700D02*X36200D01*
X146582Y13024D02*X147882D01*
X145882Y13724D02*X146582Y13024D01*
X145882Y16324D02*Y13724D01*
Y16324D02*X146582Y17024D01*
X147882D01*
X149082Y16224D02*X149882Y17024D01*
Y13024D01*
X149082D02*X150582D01*
X176200Y37000D02*X177500D01*
X175500Y37700D02*X176200Y37000D01*
X175500Y40300D02*Y37700D01*
Y40300D02*X176200Y41000D01*
X177500D01*
X178700Y40500D02*X179200Y41000D01*
X180700D01*
X181200Y40500D01*
Y39500D01*
X178700Y37000D02*X181200Y39500D01*
X178700Y37000D02*X181200D01*
X122672Y11831D02*X123472D01*
Y8331D01*
X122972Y7831D02*X123472Y8331D01*
X122472Y7831D02*X122972D01*
X121972Y8331D02*X122472Y7831D01*
X121972Y8831D02*Y8331D01*
X124672Y11331D02*X125172Y11831D01*
X126672D01*
X127172Y11331D01*
Y10331D01*
X124672Y7831D02*X127172Y10331D01*
X124672Y7831D02*X127172D01*
X294350Y41150D02*Y37150D01*
X295650Y41150D02*X296350Y40450D01*
Y37850D01*
X295650Y37150D02*X296350Y37850D01*
X293850Y37150D02*X295650D01*
X293850Y41150D02*X295650D01*
X297550Y40350D02*X298350Y41150D01*
Y37150D01*
X297550D02*X299050D01*
X281712Y105653D02*X282512D01*
Y102153D01*
X282012Y101653D02*X282512Y102153D01*
X281512Y101653D02*X282012D01*
X281012Y102153D02*X281512Y101653D01*
X281012Y102653D02*Y102153D01*
X285212Y105653D02*X285712Y105153D01*
X284212Y105653D02*X285212D01*
X283712Y105153D02*X284212Y105653D01*
X283712Y105153D02*Y102153D01*
X284212Y101653D01*
X285212Y103853D02*X285712Y103353D01*
X283712Y103853D02*X285212D01*
X284212Y101653D02*X285212D01*
X285712Y102153D01*
Y103353D02*Y102153D01*
M02*
