G04 start of page 10 for group -4015 idx -4015 *
G04 Title: (unknown), toppaste *
G04 Creator: pcb 20110918 *
G04 CreationDate: Thu 15 May 2014 04:46:46 AM GMT UTC *
G04 For: railfan *
G04 Format: Gerber/RS-274X *
G04 PCB-Dimensions: 350000 125000 *
G04 PCB-Coordinate-Origin: lower left *
%MOIN*%
%FSLAX25Y25*%
%LNTOPPASTE*%
%ADD100R,0.0360X0.0360*%
%ADD99R,0.0630X0.0630*%
%ADD98R,0.0157X0.0157*%
%ADD97R,0.0512X0.0512*%
G54D97*X230957Y108893D02*Y108107D01*
X238043Y108893D02*Y108107D01*
X255043Y108893D02*Y108107D01*
X247957Y108893D02*Y108107D01*
X205957Y90893D02*Y90107D01*
X213043Y90893D02*Y90107D01*
X205957Y100893D02*Y100107D01*
X213043Y100893D02*Y100107D01*
X194107Y62457D02*X194893D01*
X194107Y69543D02*X194893D01*
G54D98*X184523Y109949D02*Y105523D01*
X181374Y109949D02*Y105523D01*
X178224Y109949D02*Y105523D01*
X175075Y109949D02*Y105523D01*
X171925Y109949D02*Y105523D01*
X168775Y109949D02*Y105523D01*
X165626Y109949D02*Y105523D01*
X162476Y109949D02*Y105523D01*
X152508Y99980D02*X156934D01*
X152508Y96831D02*X156934D01*
X152508Y93681D02*X156934D01*
X152508Y90532D02*X156934D01*
X152508Y87382D02*X156934D01*
X152508Y84232D02*X156934D01*
X152508Y81083D02*X156934D01*
X152508Y77933D02*X156934D01*
X162477Y72391D02*Y67965D01*
X165626Y72391D02*Y67965D01*
X168776Y72391D02*Y67965D01*
X171925Y72391D02*Y67965D01*
X175075Y72391D02*Y67965D01*
X178225Y72391D02*Y67965D01*
X181374Y72391D02*Y67965D01*
X184524Y72391D02*Y67965D01*
X190066Y77934D02*X194492D01*
X190066Y81083D02*X194492D01*
X190066Y84233D02*X194492D01*
X190066Y87382D02*X194492D01*
X190066Y90532D02*X194492D01*
X190066Y93682D02*X194492D01*
X190066Y96831D02*X194492D01*
X190066Y99981D02*X194492D01*
G54D97*X152543Y108893D02*Y108107D01*
X145457Y108893D02*Y108107D01*
X310457Y31393D02*Y30607D01*
X317543Y31393D02*Y30607D01*
X289095Y32181D02*Y29819D01*
X300905Y32181D02*Y29819D01*
X221043Y15393D02*Y14607D01*
X213957Y15393D02*Y14607D01*
G54D99*X157193Y32000D02*X163492D01*
X137508D02*X143807D01*
G54D100*X154018Y55576D02*Y54376D01*
X141118Y55576D02*Y54376D01*
G54D97*X175245Y32405D02*X180755D01*
X175245Y20595D02*X180755D01*
M02*
