G04 start of page 7 for group -4062 idx -4062 *
G04 Title: (unknown), soldermask *
G04 Creator: pcb 20110918 *
G04 CreationDate: Thu 15 May 2014 04:46:46 AM GMT UTC *
G04 For: railfan *
G04 Format: Gerber/RS-274X *
G04 PCB-Dimensions: 350000 125000 *
G04 PCB-Coordinate-Origin: lower left *
%MOIN*%
%FSLAX25Y25*%
%LNBOTTOMMASK*%
%ADD92C,0.1700*%
%ADD91C,0.0860*%
%ADD90C,0.1950*%
%ADD89C,0.1500*%
%ADD88C,0.0750*%
%ADD87C,0.0900*%
%ADD86C,0.0660*%
%ADD85C,0.0580*%
%ADD84C,0.0760*%
%ADD83C,0.0001*%
G54D83*G36*
X229594Y94800D02*Y87200D01*
X237194D01*
Y94800D01*
X229594D01*
G37*
G54D84*X252606Y91000D03*
G54D83*G36*
X276045Y95085D02*Y89285D01*
X281845D01*
Y95085D01*
X276045D01*
G37*
G54D85*X286819Y92185D03*
G54D83*G36*
X249200Y54800D02*Y48200D01*
X255800D01*
Y54800D01*
X249200D01*
G37*
G54D86*X252500Y41500D03*
Y31500D03*
G54D87*X222500D03*
X212500D03*
G54D83*G36*
X198000Y36000D02*Y27000D01*
X207000D01*
Y36000D01*
X198000D01*
G37*
G54D85*X278945Y84311D03*
Y76437D03*
X286819Y84311D03*
Y76437D03*
X278945Y68563D03*
Y60689D03*
Y52815D03*
X286819Y68563D03*
Y60689D03*
Y52815D03*
G54D88*X303000Y60000D03*
X313000Y65000D03*
X303000Y70000D03*
X313000Y75000D03*
X303000Y80000D03*
X313000Y85000D03*
G54D89*X338000Y52500D03*
Y92500D03*
G54D83*G36*
X305700Y18300D02*Y11700D01*
X312300D01*
Y18300D01*
X305700D01*
G37*
G54D86*X299000Y15000D03*
X289000D03*
X279000D03*
X269000D03*
X259000D03*
G54D88*X47000Y85000D03*
X37000Y80000D03*
X47000Y75000D03*
X37000Y70000D03*
G54D89*X12000Y92500D03*
Y52500D03*
G54D88*X47000Y65000D03*
X37000Y60000D03*
G54D83*G36*
X68155Y55715D02*Y49915D01*
X73955D01*
Y55715D01*
X68155D01*
G37*
G54D85*X71055Y60689D03*
X63181Y52815D03*
Y60689D03*
G54D90*X101500Y54500D03*
G54D85*X71055Y68563D03*
Y76437D03*
X63181Y68563D03*
Y76437D03*
X71055Y84311D03*
Y92185D03*
X63181Y84311D03*
Y92185D03*
G54D83*G36*
X45200Y27300D02*Y18700D01*
X53800D01*
Y27300D01*
X45200D01*
G37*
G54D91*X69500Y23000D03*
G54D92*X101500Y30500D03*
X120500Y42500D03*
G54D83*G36*
X161700Y12800D02*Y6200D01*
X168300D01*
Y12800D01*
X161700D01*
G37*
G54D86*X175000Y9500D03*
X185000D03*
G54D83*G36*
X124700Y102800D02*Y96200D01*
X131300D01*
Y102800D01*
X124700D01*
G37*
G54D86*X118000Y99500D03*
X108000D03*
X128000Y89500D03*
X118000D03*
X108000D03*
M02*
