G04 start of page 2 for group 0 idx 0 *
G04 Title: (unknown), top *
G04 Creator: pcb 20110918 *
G04 CreationDate: Thu 15 May 2014 04:46:46 AM GMT UTC *
G04 For: railfan *
G04 Format: Gerber/RS-274X *
G04 PCB-Dimensions: 350000 125000 *
G04 PCB-Coordinate-Origin: lower left *
%MOIN*%
%FSLAX25Y25*%
%LNTOP*%
%ADD37C,0.1100*%
%ADD36C,0.0480*%
%ADD35C,0.1250*%
%ADD34C,0.1280*%
%ADD33C,0.0450*%
%ADD32C,0.0380*%
%ADD31C,0.0320*%
%ADD30C,0.0200*%
%ADD29C,0.0360*%
%ADD28R,0.0360X0.0360*%
%ADD27R,0.0630X0.0630*%
%ADD26R,0.0157X0.0157*%
%ADD25R,0.0512X0.0512*%
%ADD24C,0.1500*%
%ADD23C,0.0800*%
%ADD22C,0.1750*%
%ADD21C,0.1440*%
%ADD20C,0.0787*%
%ADD19C,0.0600*%
%ADD18C,0.0520*%
%ADD17C,0.0700*%
%ADD16C,0.0400*%
%ADD15C,0.0350*%
%ADD14C,0.0300*%
%ADD13C,0.0100*%
%ADD12C,0.0500*%
%ADD11C,0.0001*%
G54D11*G36*
X143000Y57500D02*Y52500D01*
X100500D01*
Y57500D01*
X143000D01*
G37*
G36*
X184993Y25000D02*X216500D01*
Y2000D01*
X184993D01*
Y4987D01*
X185000Y4986D01*
X185706Y5042D01*
X186395Y5207D01*
X187049Y5478D01*
X187653Y5848D01*
X188192Y6308D01*
X188652Y6847D01*
X189022Y7451D01*
X189293Y8105D01*
X189458Y8794D01*
X189500Y9500D01*
X189458Y10206D01*
X189293Y10895D01*
X189022Y11549D01*
X188652Y12153D01*
X188192Y12692D01*
X187653Y13152D01*
X187049Y13522D01*
X186395Y13793D01*
X185706Y13958D01*
X185000Y14014D01*
X184993Y14013D01*
Y25000D01*
G37*
G36*
X178613D02*X184993D01*
Y14013D01*
X184294Y13958D01*
X183605Y13793D01*
X182951Y13522D01*
X182347Y13152D01*
X181808Y12692D01*
X181348Y12153D01*
X180978Y11549D01*
X180707Y10895D01*
X180542Y10206D01*
X180486Y9500D01*
X180542Y8794D01*
X180707Y8105D01*
X180978Y7451D01*
X181348Y6847D01*
X181808Y6308D01*
X182347Y5848D01*
X182951Y5478D01*
X183605Y5207D01*
X184294Y5042D01*
X184993Y4987D01*
Y2000D01*
X178613D01*
Y7353D01*
X178656Y7360D01*
X178768Y7397D01*
X178873Y7452D01*
X178968Y7522D01*
X179051Y7606D01*
X179119Y7702D01*
X179170Y7808D01*
X179318Y8216D01*
X179422Y8637D01*
X179484Y9067D01*
X179505Y9500D01*
X179484Y9933D01*
X179422Y10363D01*
X179318Y10784D01*
X179175Y11194D01*
X179122Y11300D01*
X179053Y11396D01*
X178970Y11481D01*
X178875Y11551D01*
X178769Y11606D01*
X178657Y11643D01*
X178613Y11651D01*
Y25000D01*
G37*
G36*
X175002D02*X178613D01*
Y11651D01*
X178540Y11663D01*
X178421Y11664D01*
X178304Y11646D01*
X178191Y11610D01*
X178085Y11557D01*
X177988Y11488D01*
X177904Y11405D01*
X177833Y11309D01*
X177779Y11204D01*
X177741Y11092D01*
X177722Y10975D01*
X177721Y10856D01*
X177739Y10739D01*
X177777Y10626D01*
X177876Y10355D01*
X177944Y10075D01*
X177986Y9789D01*
X178000Y9500D01*
X177986Y9211D01*
X177944Y8925D01*
X177876Y8645D01*
X177780Y8372D01*
X177742Y8261D01*
X177725Y8144D01*
X177725Y8026D01*
X177745Y7909D01*
X177782Y7797D01*
X177836Y7693D01*
X177906Y7598D01*
X177991Y7515D01*
X178087Y7446D01*
X178192Y7393D01*
X178305Y7357D01*
X178421Y7340D01*
X178539Y7341D01*
X178613Y7353D01*
Y2000D01*
X175002D01*
Y4995D01*
X175433Y5016D01*
X175863Y5078D01*
X176284Y5182D01*
X176694Y5325D01*
X176800Y5378D01*
X176896Y5447D01*
X176981Y5530D01*
X177051Y5625D01*
X177106Y5731D01*
X177143Y5843D01*
X177163Y5960D01*
X177164Y6079D01*
X177146Y6196D01*
X177110Y6309D01*
X177057Y6415D01*
X176988Y6512D01*
X176905Y6596D01*
X176809Y6667D01*
X176704Y6721D01*
X176592Y6759D01*
X176475Y6778D01*
X176356Y6779D01*
X176239Y6761D01*
X176126Y6723D01*
X175855Y6624D01*
X175575Y6556D01*
X175289Y6514D01*
X175002Y6500D01*
Y12500D01*
X175289Y12486D01*
X175575Y12444D01*
X175855Y12376D01*
X176128Y12280D01*
X176239Y12242D01*
X176356Y12225D01*
X176474Y12225D01*
X176591Y12245D01*
X176703Y12282D01*
X176807Y12336D01*
X176902Y12406D01*
X176985Y12491D01*
X177054Y12587D01*
X177107Y12692D01*
X177143Y12805D01*
X177160Y12921D01*
X177159Y13039D01*
X177140Y13156D01*
X177103Y13268D01*
X177048Y13373D01*
X176978Y13468D01*
X176894Y13551D01*
X176798Y13619D01*
X176692Y13670D01*
X176284Y13818D01*
X175863Y13922D01*
X175433Y13984D01*
X175002Y14005D01*
Y25000D01*
G37*
G36*
X171387D02*X175002D01*
Y14005D01*
X175000Y14005D01*
X174567Y13984D01*
X174137Y13922D01*
X173716Y13818D01*
X173306Y13675D01*
X173200Y13622D01*
X173104Y13553D01*
X173019Y13470D01*
X172949Y13375D01*
X172894Y13269D01*
X172857Y13157D01*
X172837Y13040D01*
X172836Y12921D01*
X172854Y12804D01*
X172890Y12691D01*
X172943Y12585D01*
X173012Y12488D01*
X173095Y12404D01*
X173191Y12333D01*
X173296Y12279D01*
X173408Y12241D01*
X173525Y12222D01*
X173644Y12221D01*
X173761Y12239D01*
X173874Y12277D01*
X174145Y12376D01*
X174425Y12444D01*
X174711Y12486D01*
X175000Y12500D01*
X175002Y12500D01*
Y6500D01*
X175000Y6500D01*
X174711Y6514D01*
X174425Y6556D01*
X174145Y6624D01*
X173872Y6720D01*
X173761Y6758D01*
X173644Y6775D01*
X173526Y6775D01*
X173409Y6755D01*
X173297Y6718D01*
X173193Y6664D01*
X173098Y6594D01*
X173015Y6509D01*
X172946Y6413D01*
X172893Y6308D01*
X172857Y6195D01*
X172840Y6079D01*
X172841Y5961D01*
X172860Y5844D01*
X172897Y5732D01*
X172952Y5627D01*
X173022Y5532D01*
X173106Y5449D01*
X173202Y5381D01*
X173308Y5330D01*
X173716Y5182D01*
X174137Y5078D01*
X174567Y5016D01*
X175000Y4995D01*
X175002Y4995D01*
Y2000D01*
X171387D01*
Y7349D01*
X171460Y7337D01*
X171579Y7336D01*
X171696Y7354D01*
X171809Y7390D01*
X171915Y7443D01*
X172012Y7512D01*
X172096Y7595D01*
X172167Y7691D01*
X172221Y7796D01*
X172259Y7908D01*
X172278Y8025D01*
X172279Y8144D01*
X172261Y8261D01*
X172223Y8374D01*
X172124Y8645D01*
X172056Y8925D01*
X172014Y9211D01*
X172000Y9500D01*
X172014Y9789D01*
X172056Y10075D01*
X172124Y10355D01*
X172220Y10628D01*
X172258Y10739D01*
X172275Y10856D01*
X172275Y10974D01*
X172255Y11091D01*
X172218Y11203D01*
X172164Y11307D01*
X172094Y11402D01*
X172009Y11485D01*
X171913Y11554D01*
X171808Y11607D01*
X171695Y11643D01*
X171579Y11660D01*
X171461Y11659D01*
X171387Y11647D01*
Y25000D01*
G37*
G36*
X165000D02*X171387D01*
Y11647D01*
X171344Y11640D01*
X171232Y11603D01*
X171127Y11548D01*
X171032Y11478D01*
X170949Y11394D01*
X170881Y11298D01*
X170830Y11192D01*
X170682Y10784D01*
X170578Y10363D01*
X170516Y9933D01*
X170495Y9500D01*
X170516Y9067D01*
X170578Y8637D01*
X170682Y8216D01*
X170825Y7806D01*
X170878Y7700D01*
X170947Y7604D01*
X171030Y7519D01*
X171125Y7449D01*
X171231Y7394D01*
X171343Y7357D01*
X171387Y7349D01*
Y2000D01*
X165000D01*
Y5007D01*
X168235Y5014D01*
X168465Y5069D01*
X168683Y5159D01*
X168884Y5283D01*
X169064Y5436D01*
X169217Y5616D01*
X169341Y5817D01*
X169431Y6035D01*
X169486Y6265D01*
X169500Y6500D01*
X169486Y12735D01*
X169431Y12965D01*
X169341Y13183D01*
X169217Y13384D01*
X169064Y13564D01*
X168884Y13717D01*
X168683Y13841D01*
X168465Y13931D01*
X168235Y13986D01*
X168000Y14000D01*
X165000Y13993D01*
Y25000D01*
G37*
G36*
X73993Y32000D02*X93119D01*
X93079Y31834D01*
X92974Y30500D01*
X93079Y29166D01*
X93391Y27865D01*
X93903Y26629D01*
X94602Y25488D01*
X95471Y24471D01*
X96488Y23602D01*
X97629Y22903D01*
X98865Y22391D01*
X100166Y22079D01*
X101500Y21974D01*
X102834Y22079D01*
X104135Y22391D01*
X105371Y22903D01*
X106512Y23602D01*
X107529Y24471D01*
X108398Y25488D01*
X109097Y26629D01*
X109609Y27865D01*
X109921Y29166D01*
X110000Y30500D01*
X109921Y31834D01*
X109881Y32000D01*
X149500D01*
Y25000D01*
X165000D01*
Y13993D01*
X161765Y13986D01*
X161535Y13931D01*
X161317Y13841D01*
X161116Y13717D01*
X160936Y13564D01*
X160783Y13384D01*
X160659Y13183D01*
X160569Y12965D01*
X160514Y12735D01*
X160500Y12500D01*
X160514Y6265D01*
X160569Y6035D01*
X160659Y5817D01*
X160783Y5616D01*
X160936Y5436D01*
X161116Y5283D01*
X161317Y5159D01*
X161535Y5069D01*
X161765Y5014D01*
X162000Y5000D01*
X165000Y5007D01*
Y2000D01*
X73993D01*
Y20145D01*
X74078Y20181D01*
X74179Y20243D01*
X74269Y20319D01*
X74345Y20409D01*
X74405Y20511D01*
X74622Y20980D01*
X74789Y21469D01*
X74909Y21972D01*
X74982Y22484D01*
X75006Y23000D01*
X74982Y23516D01*
X74909Y24028D01*
X74789Y24531D01*
X74622Y25020D01*
X74410Y25492D01*
X74349Y25593D01*
X74272Y25684D01*
X74182Y25761D01*
X74080Y25823D01*
X73993Y25860D01*
Y32000D01*
G37*
G36*
X69502D02*X73993D01*
Y25860D01*
X73971Y25869D01*
X73855Y25897D01*
X73737Y25906D01*
X73619Y25897D01*
X73503Y25870D01*
X73393Y25824D01*
X73292Y25762D01*
X73202Y25686D01*
X73124Y25595D01*
X73062Y25494D01*
X73016Y25385D01*
X72989Y25269D01*
X72979Y25151D01*
X72988Y25032D01*
X73016Y24917D01*
X73063Y24808D01*
X73221Y24468D01*
X73342Y24112D01*
X73430Y23747D01*
X73482Y23375D01*
X73500Y23000D01*
X73482Y22625D01*
X73430Y22253D01*
X73342Y21888D01*
X73221Y21532D01*
X73067Y21190D01*
X73020Y21082D01*
X72993Y20967D01*
X72983Y20849D01*
X72993Y20732D01*
X73021Y20617D01*
X73066Y20508D01*
X73128Y20407D01*
X73205Y20318D01*
X73295Y20241D01*
X73395Y20180D01*
X73504Y20135D01*
X73619Y20107D01*
X73737Y20098D01*
X73855Y20108D01*
X73969Y20135D01*
X73993Y20145D01*
Y2000D01*
X69502D01*
Y17494D01*
X70016Y17518D01*
X70528Y17591D01*
X71031Y17711D01*
X71520Y17878D01*
X71992Y18090D01*
X72093Y18151D01*
X72184Y18228D01*
X72261Y18318D01*
X72323Y18420D01*
X72369Y18529D01*
X72397Y18645D01*
X72406Y18763D01*
X72397Y18881D01*
X72370Y18997D01*
X72324Y19107D01*
X72262Y19208D01*
X72186Y19298D01*
X72095Y19376D01*
X71994Y19438D01*
X71885Y19484D01*
X71769Y19511D01*
X71651Y19521D01*
X71532Y19512D01*
X71417Y19484D01*
X71308Y19437D01*
X70968Y19279D01*
X70612Y19158D01*
X70247Y19070D01*
X69875Y19018D01*
X69502Y19000D01*
Y27000D01*
X69875Y26982D01*
X70247Y26930D01*
X70612Y26842D01*
X70968Y26721D01*
X71310Y26567D01*
X71418Y26520D01*
X71533Y26493D01*
X71651Y26483D01*
X71768Y26493D01*
X71883Y26521D01*
X71992Y26566D01*
X72093Y26628D01*
X72182Y26705D01*
X72259Y26795D01*
X72320Y26895D01*
X72365Y27004D01*
X72393Y27119D01*
X72402Y27237D01*
X72392Y27355D01*
X72365Y27469D01*
X72319Y27578D01*
X72257Y27679D01*
X72181Y27769D01*
X72091Y27845D01*
X71989Y27905D01*
X71520Y28122D01*
X71031Y28289D01*
X70528Y28409D01*
X70016Y28482D01*
X69502Y28506D01*
Y32000D01*
G37*
G36*
X65007D02*X69502D01*
Y28506D01*
X69500Y28506D01*
X68984Y28482D01*
X68472Y28409D01*
X67969Y28289D01*
X67480Y28122D01*
X67008Y27910D01*
X66907Y27849D01*
X66816Y27772D01*
X66739Y27682D01*
X66677Y27580D01*
X66631Y27471D01*
X66603Y27355D01*
X66594Y27237D01*
X66603Y27119D01*
X66630Y27003D01*
X66676Y26893D01*
X66738Y26792D01*
X66814Y26702D01*
X66905Y26624D01*
X67006Y26562D01*
X67115Y26516D01*
X67231Y26489D01*
X67349Y26479D01*
X67468Y26488D01*
X67583Y26516D01*
X67692Y26563D01*
X68032Y26721D01*
X68388Y26842D01*
X68753Y26930D01*
X69125Y26982D01*
X69500Y27000D01*
X69502Y27000D01*
Y19000D01*
X69500Y19000D01*
X69125Y19018D01*
X68753Y19070D01*
X68388Y19158D01*
X68032Y19279D01*
X67690Y19433D01*
X67582Y19480D01*
X67467Y19507D01*
X67349Y19517D01*
X67232Y19507D01*
X67117Y19479D01*
X67008Y19434D01*
X66907Y19372D01*
X66818Y19295D01*
X66741Y19205D01*
X66680Y19105D01*
X66635Y18996D01*
X66607Y18881D01*
X66598Y18763D01*
X66608Y18645D01*
X66635Y18531D01*
X66681Y18422D01*
X66743Y18321D01*
X66819Y18231D01*
X66909Y18155D01*
X67011Y18095D01*
X67480Y17878D01*
X67969Y17711D01*
X68472Y17591D01*
X68984Y17518D01*
X69500Y17494D01*
X69502Y17494D01*
Y2000D01*
X65007D01*
Y20140D01*
X65029Y20131D01*
X65145Y20103D01*
X65263Y20094D01*
X65381Y20103D01*
X65497Y20130D01*
X65607Y20176D01*
X65708Y20238D01*
X65798Y20314D01*
X65876Y20405D01*
X65938Y20506D01*
X65984Y20615D01*
X66011Y20731D01*
X66021Y20849D01*
X66012Y20968D01*
X65984Y21083D01*
X65937Y21192D01*
X65779Y21532D01*
X65658Y21888D01*
X65570Y22253D01*
X65518Y22625D01*
X65500Y23000D01*
X65518Y23375D01*
X65570Y23747D01*
X65658Y24112D01*
X65779Y24468D01*
X65933Y24810D01*
X65980Y24918D01*
X66007Y25033D01*
X66017Y25151D01*
X66007Y25268D01*
X65979Y25383D01*
X65934Y25492D01*
X65872Y25593D01*
X65795Y25682D01*
X65705Y25759D01*
X65605Y25820D01*
X65496Y25865D01*
X65381Y25893D01*
X65263Y25902D01*
X65145Y25892D01*
X65031Y25865D01*
X65007Y25855D01*
Y32000D01*
G37*
G36*
X60500D02*X65007D01*
Y25855D01*
X64922Y25819D01*
X64821Y25757D01*
X64731Y25681D01*
X64655Y25591D01*
X64595Y25489D01*
X64378Y25020D01*
X64211Y24531D01*
X64091Y24028D01*
X64018Y23516D01*
X63994Y23000D01*
X64018Y22484D01*
X64091Y21972D01*
X64211Y21469D01*
X64378Y20980D01*
X64590Y20508D01*
X64651Y20407D01*
X64728Y20316D01*
X64818Y20239D01*
X64920Y20177D01*
X65007Y20140D01*
Y2000D01*
X60500D01*
Y32000D01*
G37*
G36*
X105541Y95729D02*X105951Y95478D01*
X106605Y95207D01*
X107294Y95042D01*
X108000Y94986D01*
X108500Y95025D01*
Y84500D01*
X105541D01*
Y85728D01*
X105855Y85538D01*
X106246Y85350D01*
X106358Y85312D01*
X106475Y85293D01*
X106593Y85292D01*
X106711Y85310D01*
X106824Y85346D01*
X106930Y85399D01*
X107026Y85468D01*
X107111Y85551D01*
X107181Y85646D01*
X107236Y85752D01*
X107273Y85864D01*
X107293Y85981D01*
X107294Y86100D01*
X107276Y86217D01*
X107240Y86330D01*
X107187Y86436D01*
X107118Y86533D01*
X107035Y86617D01*
X106939Y86688D01*
X106833Y86740D01*
X106571Y86862D01*
X106324Y87012D01*
X106093Y87184D01*
X105879Y87379D01*
X105684Y87593D01*
X105541Y87785D01*
Y91215D01*
X105684Y91407D01*
X105879Y91621D01*
X106093Y91816D01*
X106324Y91988D01*
X106571Y92138D01*
X106832Y92263D01*
X106937Y92315D01*
X107032Y92386D01*
X107115Y92470D01*
X107184Y92566D01*
X107237Y92671D01*
X107272Y92784D01*
X107290Y92900D01*
X107289Y93018D01*
X107270Y93135D01*
X107233Y93247D01*
X107178Y93352D01*
X107108Y93447D01*
X107024Y93530D01*
X106928Y93598D01*
X106822Y93651D01*
X106710Y93687D01*
X106593Y93704D01*
X106475Y93704D01*
X106359Y93684D01*
X106248Y93645D01*
X105855Y93462D01*
X105541Y93272D01*
Y95729D01*
G37*
G36*
X108500Y104500D02*Y103975D01*
X108000Y104014D01*
X107294Y103958D01*
X106605Y103793D01*
X105951Y103522D01*
X105541Y103271D01*
Y104500D01*
X108500D01*
G37*
G36*
X105541Y103271D02*X105347Y103152D01*
X104808Y102692D01*
X104348Y102153D01*
X103978Y101549D01*
X103707Y100895D01*
X103542Y100206D01*
X103486Y99500D01*
X103542Y98794D01*
X103707Y98105D01*
X103978Y97451D01*
X104348Y96847D01*
X104808Y96308D01*
X105347Y95848D01*
X105541Y95729D01*
Y93272D01*
X105483Y93237D01*
X105136Y92977D01*
X104814Y92686D01*
X104523Y92364D01*
X104263Y92017D01*
X104038Y91645D01*
X103850Y91254D01*
X103812Y91142D01*
X103793Y91025D01*
X103792Y90907D01*
X103810Y90789D01*
X103846Y90676D01*
X103899Y90570D01*
X103968Y90474D01*
X104051Y90389D01*
X104146Y90319D01*
X104252Y90264D01*
X104364Y90227D01*
X104481Y90207D01*
X104600Y90206D01*
X104717Y90224D01*
X104830Y90260D01*
X104936Y90313D01*
X105033Y90382D01*
X105117Y90465D01*
X105188Y90561D01*
X105240Y90667D01*
X105362Y90929D01*
X105512Y91176D01*
X105541Y91215D01*
Y87785D01*
X105512Y87824D01*
X105362Y88071D01*
X105237Y88332D01*
X105185Y88437D01*
X105114Y88532D01*
X105030Y88615D01*
X104934Y88684D01*
X104829Y88737D01*
X104716Y88772D01*
X104600Y88790D01*
X104482Y88789D01*
X104365Y88770D01*
X104253Y88733D01*
X104148Y88678D01*
X104053Y88608D01*
X103970Y88524D01*
X103902Y88428D01*
X103849Y88322D01*
X103813Y88210D01*
X103796Y88093D01*
X103796Y87975D01*
X103816Y87859D01*
X103855Y87748D01*
X104038Y87355D01*
X104263Y86983D01*
X104523Y86636D01*
X104814Y86314D01*
X105136Y86023D01*
X105483Y85763D01*
X105541Y85728D01*
Y84500D01*
X98121D01*
X93500Y89121D01*
Y104500D01*
X105541D01*
Y103271D01*
G37*
G36*
X94000Y123000D02*X148500D01*
Y105500D01*
X140121D01*
X136602Y109019D01*
X136564Y109064D01*
X136384Y109217D01*
X136183Y109341D01*
X135965Y109431D01*
X135735Y109486D01*
X135735Y109486D01*
X135500Y109505D01*
X135441Y109500D01*
X94000D01*
Y123000D01*
G37*
G36*
X86500Y98500D02*X98000D01*
Y87000D01*
X95621D01*
X89417Y93204D01*
X89379Y93249D01*
X89199Y93402D01*
X88998Y93526D01*
X88780Y93616D01*
X88550Y93671D01*
X88550Y93671D01*
X88315Y93690D01*
X88256Y93685D01*
X86500D01*
Y98500D01*
G37*
G36*
Y104500D02*X100500D01*
Y93500D01*
X89040D01*
X88998Y93526D01*
X88780Y93616D01*
X88550Y93671D01*
X88550Y93671D01*
X88315Y93690D01*
X88256Y93685D01*
X86500D01*
Y104500D01*
G37*
G36*
X101500Y123000D02*Y109500D01*
X44059D01*
X44000Y109505D01*
X43765Y109486D01*
X43535Y109431D01*
X43317Y109341D01*
X43116Y109217D01*
X43115Y109217D01*
X42936Y109064D01*
X42898Y109019D01*
X33981Y100102D01*
X33936Y100064D01*
X33783Y99884D01*
X33659Y99683D01*
X33569Y99465D01*
X33514Y99235D01*
X33514Y99235D01*
X33495Y99000D01*
X33500Y98941D01*
Y92500D01*
X20200D01*
X20124Y93787D01*
X19823Y95042D01*
X19329Y96234D01*
X18654Y97335D01*
X17816Y98316D01*
X16835Y99154D01*
X15734Y99829D01*
X14542Y100323D01*
X13287Y100624D01*
X12000Y100725D01*
X10713Y100624D01*
X9458Y100323D01*
X8266Y99829D01*
X7165Y99154D01*
X6184Y98316D01*
X5346Y97335D01*
X4671Y96234D01*
X4177Y95042D01*
X3876Y93787D01*
X3775Y92500D01*
X2000D01*
Y123000D01*
X101500D01*
G37*
G36*
X73993Y32000D02*X77500D01*
Y2000D01*
X73993D01*
Y20145D01*
X74078Y20181D01*
X74179Y20243D01*
X74269Y20319D01*
X74345Y20409D01*
X74405Y20511D01*
X74622Y20980D01*
X74789Y21469D01*
X74909Y21972D01*
X74982Y22484D01*
X75006Y23000D01*
X74982Y23516D01*
X74909Y24028D01*
X74789Y24531D01*
X74622Y25020D01*
X74410Y25492D01*
X74349Y25593D01*
X74272Y25684D01*
X74182Y25761D01*
X74080Y25823D01*
X73993Y25860D01*
Y32000D01*
G37*
G36*
X69502D02*X73993D01*
Y25860D01*
X73971Y25869D01*
X73855Y25897D01*
X73737Y25906D01*
X73619Y25897D01*
X73503Y25870D01*
X73393Y25824D01*
X73292Y25762D01*
X73202Y25686D01*
X73124Y25595D01*
X73062Y25494D01*
X73016Y25385D01*
X72989Y25269D01*
X72979Y25151D01*
X72988Y25032D01*
X73016Y24917D01*
X73063Y24808D01*
X73221Y24468D01*
X73342Y24112D01*
X73430Y23747D01*
X73482Y23375D01*
X73500Y23000D01*
X73482Y22625D01*
X73430Y22253D01*
X73342Y21888D01*
X73221Y21532D01*
X73067Y21190D01*
X73020Y21082D01*
X72993Y20967D01*
X72983Y20849D01*
X72993Y20732D01*
X73021Y20617D01*
X73066Y20508D01*
X73128Y20407D01*
X73205Y20318D01*
X73295Y20241D01*
X73395Y20180D01*
X73504Y20135D01*
X73619Y20107D01*
X73737Y20098D01*
X73855Y20108D01*
X73969Y20135D01*
X73993Y20145D01*
Y2000D01*
X69502D01*
Y17494D01*
X70016Y17518D01*
X70528Y17591D01*
X71031Y17711D01*
X71520Y17878D01*
X71992Y18090D01*
X72093Y18151D01*
X72184Y18228D01*
X72261Y18318D01*
X72323Y18420D01*
X72369Y18529D01*
X72397Y18645D01*
X72406Y18763D01*
X72397Y18881D01*
X72370Y18997D01*
X72324Y19107D01*
X72262Y19208D01*
X72186Y19298D01*
X72095Y19376D01*
X71994Y19438D01*
X71885Y19484D01*
X71769Y19511D01*
X71651Y19521D01*
X71532Y19512D01*
X71417Y19484D01*
X71308Y19437D01*
X70968Y19279D01*
X70612Y19158D01*
X70247Y19070D01*
X69875Y19018D01*
X69502Y19000D01*
Y27000D01*
X69875Y26982D01*
X70247Y26930D01*
X70612Y26842D01*
X70968Y26721D01*
X71310Y26567D01*
X71418Y26520D01*
X71533Y26493D01*
X71651Y26483D01*
X71768Y26493D01*
X71883Y26521D01*
X71992Y26566D01*
X72093Y26628D01*
X72182Y26705D01*
X72259Y26795D01*
X72320Y26895D01*
X72365Y27004D01*
X72393Y27119D01*
X72402Y27237D01*
X72392Y27355D01*
X72365Y27469D01*
X72319Y27578D01*
X72257Y27679D01*
X72181Y27769D01*
X72091Y27845D01*
X71989Y27905D01*
X71520Y28122D01*
X71031Y28289D01*
X70528Y28409D01*
X70016Y28482D01*
X69502Y28506D01*
Y32000D01*
G37*
G36*
X65007D02*X69502D01*
Y28506D01*
X69500Y28506D01*
X68984Y28482D01*
X68472Y28409D01*
X67969Y28289D01*
X67480Y28122D01*
X67008Y27910D01*
X66907Y27849D01*
X66816Y27772D01*
X66739Y27682D01*
X66677Y27580D01*
X66631Y27471D01*
X66603Y27355D01*
X66594Y27237D01*
X66603Y27119D01*
X66630Y27003D01*
X66676Y26893D01*
X66738Y26792D01*
X66814Y26702D01*
X66905Y26624D01*
X67006Y26562D01*
X67115Y26516D01*
X67231Y26489D01*
X67349Y26479D01*
X67468Y26488D01*
X67583Y26516D01*
X67692Y26563D01*
X68032Y26721D01*
X68388Y26842D01*
X68753Y26930D01*
X69125Y26982D01*
X69500Y27000D01*
X69502Y27000D01*
Y19000D01*
X69500Y19000D01*
X69125Y19018D01*
X68753Y19070D01*
X68388Y19158D01*
X68032Y19279D01*
X67690Y19433D01*
X67582Y19480D01*
X67467Y19507D01*
X67349Y19517D01*
X67232Y19507D01*
X67117Y19479D01*
X67008Y19434D01*
X66907Y19372D01*
X66818Y19295D01*
X66741Y19205D01*
X66680Y19105D01*
X66635Y18996D01*
X66607Y18881D01*
X66598Y18763D01*
X66608Y18645D01*
X66635Y18531D01*
X66681Y18422D01*
X66743Y18321D01*
X66819Y18231D01*
X66909Y18155D01*
X67011Y18095D01*
X67480Y17878D01*
X67969Y17711D01*
X68472Y17591D01*
X68984Y17518D01*
X69500Y17494D01*
X69502Y17494D01*
Y2000D01*
X65007D01*
Y20140D01*
X65029Y20131D01*
X65145Y20103D01*
X65263Y20094D01*
X65381Y20103D01*
X65497Y20130D01*
X65607Y20176D01*
X65708Y20238D01*
X65798Y20314D01*
X65876Y20405D01*
X65938Y20506D01*
X65984Y20615D01*
X66011Y20731D01*
X66021Y20849D01*
X66012Y20968D01*
X65984Y21083D01*
X65937Y21192D01*
X65779Y21532D01*
X65658Y21888D01*
X65570Y22253D01*
X65518Y22625D01*
X65500Y23000D01*
X65518Y23375D01*
X65570Y23747D01*
X65658Y24112D01*
X65779Y24468D01*
X65933Y24810D01*
X65980Y24918D01*
X66007Y25033D01*
X66017Y25151D01*
X66007Y25268D01*
X65979Y25383D01*
X65934Y25492D01*
X65872Y25593D01*
X65795Y25682D01*
X65705Y25759D01*
X65605Y25820D01*
X65496Y25865D01*
X65381Y25893D01*
X65263Y25902D01*
X65145Y25892D01*
X65031Y25865D01*
X65007Y25855D01*
Y32000D01*
G37*
G36*
X2000Y2000D02*Y32000D01*
X22691D01*
X22726Y31561D01*
X22829Y31132D01*
X22997Y30725D01*
X23228Y30349D01*
X23514Y30014D01*
X23849Y29728D01*
X24225Y29497D01*
X24632Y29329D01*
X25061Y29226D01*
X25500Y29191D01*
X25939Y29226D01*
X26368Y29329D01*
X26775Y29497D01*
X27151Y29728D01*
X27486Y30014D01*
X27772Y30349D01*
X28000Y30721D01*
X28228Y30349D01*
X28514Y30014D01*
X28849Y29728D01*
X29225Y29497D01*
X29632Y29329D01*
X30061Y29226D01*
X30500Y29191D01*
X30939Y29226D01*
X31368Y29329D01*
X31775Y29497D01*
X32151Y29728D01*
X32486Y30014D01*
X32772Y30349D01*
X33003Y30725D01*
X33171Y31132D01*
X33274Y31561D01*
X33300Y32000D01*
X43500D01*
Y17000D01*
X55500D01*
Y30000D01*
X57500Y32000D01*
X65007D01*
Y25855D01*
X64922Y25819D01*
X64821Y25757D01*
X64731Y25681D01*
X64655Y25591D01*
X64595Y25489D01*
X64378Y25020D01*
X64211Y24531D01*
X64091Y24028D01*
X64018Y23516D01*
X63994Y23000D01*
X64018Y22484D01*
X64091Y21972D01*
X64211Y21469D01*
X64378Y20980D01*
X64590Y20508D01*
X64651Y20407D01*
X64728Y20316D01*
X64818Y20239D01*
X64920Y20177D01*
X65007Y20140D01*
Y2000D01*
X2000D01*
G37*
G36*
X11987Y123000D02*X37000D01*
Y103121D01*
X33981Y100102D01*
X33936Y100064D01*
X33783Y99884D01*
X33659Y99683D01*
X33569Y99465D01*
X33514Y99235D01*
X33514Y99235D01*
X33495Y99000D01*
X33500Y98941D01*
Y89121D01*
X25981Y81602D01*
X25936Y81564D01*
X25783Y81384D01*
X25659Y81183D01*
X25569Y80965D01*
X25514Y80735D01*
X25514Y80735D01*
X25495Y80500D01*
X25500Y80441D01*
Y34809D01*
X25061Y34774D01*
X24632Y34671D01*
X24225Y34503D01*
X23849Y34272D01*
X23514Y33986D01*
X23228Y33651D01*
X22997Y33275D01*
X22829Y32868D01*
X22726Y32439D01*
X22691Y32000D01*
X22726Y31561D01*
X22829Y31132D01*
X22997Y30725D01*
X23228Y30349D01*
X23514Y30014D01*
X23849Y29728D01*
X24225Y29497D01*
X24632Y29329D01*
X25061Y29226D01*
X25500Y29191D01*
X25939Y29226D01*
X26368Y29329D01*
X26775Y29497D01*
X27151Y29728D01*
X27486Y30014D01*
X27772Y30349D01*
X28000Y30721D01*
X28228Y30349D01*
X28514Y30014D01*
X28849Y29728D01*
X29225Y29497D01*
X29632Y29329D01*
X30061Y29226D01*
X30500Y29191D01*
X30939Y29226D01*
X31368Y29329D01*
X31775Y29497D01*
X32151Y29728D01*
X32486Y30014D01*
X32772Y30349D01*
X33003Y30725D01*
X33171Y31132D01*
X33274Y31561D01*
X33300Y32000D01*
X37000D01*
Y2000D01*
X11987D01*
Y44276D01*
X12000Y44275D01*
X13287Y44376D01*
X14542Y44677D01*
X15734Y45171D01*
X16835Y45846D01*
X17816Y46684D01*
X18654Y47665D01*
X19329Y48766D01*
X19823Y49958D01*
X20124Y51213D01*
X20200Y52500D01*
X20124Y53787D01*
X19823Y55042D01*
X19329Y56234D01*
X18654Y57335D01*
X17816Y58316D01*
X16835Y59154D01*
X15734Y59829D01*
X14542Y60323D01*
X13287Y60624D01*
X12000Y60725D01*
X11987Y60724D01*
Y84276D01*
X12000Y84275D01*
X13287Y84376D01*
X14542Y84677D01*
X15734Y85171D01*
X16835Y85846D01*
X17816Y86684D01*
X18654Y87665D01*
X19329Y88766D01*
X19823Y89958D01*
X20124Y91213D01*
X20200Y92500D01*
X20124Y93787D01*
X19823Y95042D01*
X19329Y96234D01*
X18654Y97335D01*
X17816Y98316D01*
X16835Y99154D01*
X15734Y99829D01*
X14542Y100323D01*
X13287Y100624D01*
X12000Y100725D01*
X11987Y100724D01*
Y123000D01*
G37*
G36*
X2000D02*X11987D01*
Y100724D01*
X10713Y100624D01*
X9458Y100323D01*
X8266Y99829D01*
X7165Y99154D01*
X6184Y98316D01*
X5346Y97335D01*
X4671Y96234D01*
X4177Y95042D01*
X3876Y93787D01*
X3775Y92500D01*
X3876Y91213D01*
X4177Y89958D01*
X4671Y88766D01*
X5346Y87665D01*
X6184Y86684D01*
X7165Y85846D01*
X8266Y85171D01*
X9458Y84677D01*
X10713Y84376D01*
X11987Y84276D01*
Y60724D01*
X10713Y60624D01*
X9458Y60323D01*
X8266Y59829D01*
X7165Y59154D01*
X6184Y58316D01*
X5346Y57335D01*
X4671Y56234D01*
X4177Y55042D01*
X3876Y53787D01*
X3775Y52500D01*
X3876Y51213D01*
X4177Y49958D01*
X4671Y48766D01*
X5346Y47665D01*
X6184Y46684D01*
X7165Y45846D01*
X8266Y45171D01*
X9458Y44677D01*
X10713Y44376D01*
X11987Y44276D01*
Y2000D01*
X2000D01*
Y123000D01*
G37*
G36*
X175500Y103000D02*X187500D01*
Y75000D01*
X174000D01*
Y101500D01*
X175500Y103000D01*
G37*
G36*
X159500Y75000D02*Y103000D01*
X173000D01*
Y75000D01*
X159500D01*
G37*
G36*
X218500Y12000D02*Y25000D01*
X254500D01*
Y15176D01*
X254486Y15000D01*
X254500Y14824D01*
Y12000D01*
X218500D01*
G37*
G36*
X202500Y47000D02*X206500D01*
Y33788D01*
X206483Y33747D01*
X206446Y33594D01*
X206437Y33437D01*
Y29563D01*
X206446Y29406D01*
X206483Y29253D01*
X206500Y29212D01*
Y27500D01*
X204788D01*
X204747Y27517D01*
X204594Y27554D01*
X204437Y27563D01*
X202500D01*
Y35437D01*
X204437D01*
X204594Y35446D01*
X204747Y35483D01*
X204892Y35543D01*
X205027Y35625D01*
X205146Y35728D01*
X205249Y35847D01*
X205331Y35982D01*
X205391Y36127D01*
X205428Y36280D01*
X205440Y36437D01*
X205428Y36594D01*
X205391Y36747D01*
X205331Y36892D01*
X205249Y37027D01*
X205146Y37146D01*
X205027Y37249D01*
X204892Y37331D01*
X204747Y37391D01*
X204594Y37428D01*
X204437Y37437D01*
X202500D01*
Y47000D01*
G37*
G36*
X197563Y47307D02*X197915Y47161D01*
X198451Y47032D01*
X199000Y46989D01*
X199137Y47000D01*
X202500D01*
Y37437D01*
X200563D01*
X200406Y37428D01*
X200253Y37391D01*
X200108Y37331D01*
X199973Y37249D01*
X199854Y37146D01*
X199751Y37027D01*
X199669Y36892D01*
X199609Y36747D01*
X199572Y36594D01*
X199560Y36437D01*
X199572Y36280D01*
X199609Y36127D01*
X199669Y35982D01*
X199751Y35847D01*
X199854Y35728D01*
X199973Y35625D01*
X200108Y35543D01*
X200253Y35483D01*
X200406Y35446D01*
X200563Y35437D01*
X202500D01*
Y27563D01*
X200563D01*
X200406Y27554D01*
X200253Y27517D01*
X200212Y27500D01*
X197563D01*
Y28560D01*
X197720Y28572D01*
X197873Y28609D01*
X198018Y28669D01*
X198153Y28751D01*
X198272Y28854D01*
X198375Y28973D01*
X198457Y29108D01*
X198517Y29253D01*
X198554Y29406D01*
X198563Y29563D01*
Y33437D01*
X198554Y33594D01*
X198517Y33747D01*
X198457Y33892D01*
X198375Y34027D01*
X198272Y34146D01*
X198153Y34249D01*
X198018Y34331D01*
X197873Y34391D01*
X197720Y34428D01*
X197563Y34440D01*
Y47307D01*
G37*
G36*
X152000Y57500D02*X191000D01*
Y55137D01*
X190989Y55000D01*
X191032Y54451D01*
Y54451D01*
X191161Y53915D01*
X191372Y53406D01*
X191660Y52936D01*
X192017Y52517D01*
X192122Y52428D01*
X196428Y48122D01*
X196517Y48017D01*
X196936Y47660D01*
X197406Y47372D01*
X197563Y47307D01*
Y34440D01*
X197406Y34428D01*
X197253Y34391D01*
X197108Y34331D01*
X196973Y34249D01*
X196854Y34146D01*
X196751Y34027D01*
X196669Y33892D01*
X196609Y33747D01*
X196572Y33594D01*
X196563Y33437D01*
Y29563D01*
X196572Y29406D01*
X196609Y29253D01*
X196669Y29108D01*
X196751Y28973D01*
X196854Y28854D01*
X196973Y28751D01*
X197108Y28669D01*
X197253Y28609D01*
X197406Y28572D01*
X197563Y28560D01*
Y27500D01*
X152000D01*
Y57500D01*
G37*
G36*
X194500Y58000D02*X245000D01*
Y50500D01*
X198500D01*
X194500Y54500D01*
Y58000D01*
G37*
G36*
X245000D02*Y38000D01*
X208000D01*
Y58000D01*
X245000D01*
G37*
G36*
X260000Y104000D02*Y123000D01*
X348000D01*
Y104000D01*
X311621D01*
X309602Y106019D01*
X309564Y106064D01*
X309384Y106217D01*
X309183Y106341D01*
X308965Y106431D01*
X308735Y106486D01*
X308735Y106486D01*
X308500Y106505D01*
X308441Y106500D01*
X276059D01*
X276000Y106505D01*
X275765Y106486D01*
X275535Y106431D01*
X275317Y106341D01*
X275116Y106217D01*
X275115Y106217D01*
X274936Y106064D01*
X274898Y106019D01*
X272879Y104000D01*
X260000D01*
G37*
G36*
X309621Y106000D02*X326000D01*
Y85000D01*
X325500Y85500D01*
Y89441D01*
X325505Y89500D01*
X325486Y89735D01*
X325486Y89735D01*
X325431Y89965D01*
X325341Y90183D01*
X325217Y90384D01*
X325064Y90564D01*
X325019Y90602D01*
X309621Y106000D01*
G37*
G36*
X348000Y123000D02*Y2000D01*
X337987D01*
Y44276D01*
X338000Y44275D01*
X339287Y44376D01*
X340542Y44677D01*
X341734Y45171D01*
X342835Y45846D01*
X343816Y46684D01*
X344654Y47665D01*
X345329Y48766D01*
X345823Y49958D01*
X346124Y51213D01*
X346200Y52500D01*
X346124Y53787D01*
X345823Y55042D01*
X345329Y56234D01*
X344654Y57335D01*
X343816Y58316D01*
X342835Y59154D01*
X341734Y59829D01*
X340542Y60323D01*
X339287Y60624D01*
X338000Y60725D01*
X337987Y60724D01*
Y84276D01*
X338000Y84275D01*
X339287Y84376D01*
X340542Y84677D01*
X341734Y85171D01*
X342835Y85846D01*
X343816Y86684D01*
X344654Y87665D01*
X345329Y88766D01*
X345823Y89958D01*
X346124Y91213D01*
X346200Y92500D01*
X346124Y93787D01*
X345823Y95042D01*
X345329Y96234D01*
X344654Y97335D01*
X343816Y98316D01*
X342835Y99154D01*
X341734Y99829D01*
X340542Y100323D01*
X339287Y100624D01*
X338000Y100725D01*
X337987Y100724D01*
Y123000D01*
X348000D01*
G37*
G36*
X337987Y2000D02*X322500D01*
Y61379D01*
X325019Y63898D01*
X325064Y63936D01*
X325217Y64115D01*
X325217Y64116D01*
X325341Y64317D01*
X325431Y64535D01*
X325486Y64765D01*
X325505Y65000D01*
X325500Y65059D01*
Y89441D01*
X325505Y89500D01*
X325486Y89735D01*
X325486Y89735D01*
X325431Y89965D01*
X325341Y90183D01*
X325217Y90384D01*
X325064Y90564D01*
X325019Y90602D01*
X322500Y93121D01*
Y123000D01*
X337987D01*
Y100724D01*
X336713Y100624D01*
X335458Y100323D01*
X334266Y99829D01*
X333165Y99154D01*
X332184Y98316D01*
X331346Y97335D01*
X330671Y96234D01*
X330177Y95042D01*
X329876Y93787D01*
X329775Y92500D01*
X329876Y91213D01*
X330177Y89958D01*
X330671Y88766D01*
X331346Y87665D01*
X332184Y86684D01*
X333165Y85846D01*
X334266Y85171D01*
X335458Y84677D01*
X336713Y84376D01*
X337987Y84276D01*
Y60724D01*
X336713Y60624D01*
X335458Y60323D01*
X334266Y59829D01*
X333165Y59154D01*
X332184Y58316D01*
X331346Y57335D01*
X330671Y56234D01*
X330177Y55042D01*
X329876Y53787D01*
X329775Y52500D01*
X329876Y51213D01*
X330177Y49958D01*
X330671Y48766D01*
X331346Y47665D01*
X332184Y46684D01*
X333165Y45846D01*
X334266Y45171D01*
X335458Y44677D01*
X336713Y44376D01*
X337987Y44276D01*
Y2000D01*
G37*
G36*
X348000D02*X289000D01*
Y10486D01*
X289706Y10542D01*
X290395Y10707D01*
X291049Y10978D01*
X291085Y11000D01*
X296915D01*
X296951Y10978D01*
X297605Y10707D01*
X298294Y10542D01*
X299000Y10486D01*
X299706Y10542D01*
X300395Y10707D01*
X301049Y10978D01*
X301085Y11000D01*
X304881D01*
X304936Y10936D01*
X305116Y10783D01*
X305317Y10659D01*
X305535Y10569D01*
X305765Y10514D01*
X306000Y10500D01*
X312235Y10514D01*
X312465Y10569D01*
X312683Y10659D01*
X312884Y10783D01*
X313064Y10936D01*
X313119Y11000D01*
X348000D01*
Y2000D01*
G37*
G36*
X213000D02*Y11000D01*
X256915D01*
X256951Y10978D01*
X257605Y10707D01*
X258294Y10542D01*
X259000Y10486D01*
X259706Y10542D01*
X260395Y10707D01*
X261049Y10978D01*
X261085Y11000D01*
X266915D01*
X266951Y10978D01*
X267605Y10707D01*
X268294Y10542D01*
X269000Y10486D01*
X269706Y10542D01*
X270395Y10707D01*
X271049Y10978D01*
X271085Y11000D01*
X276915D01*
X276951Y10978D01*
X277605Y10707D01*
X278294Y10542D01*
X279000Y10486D01*
X279706Y10542D01*
X280395Y10707D01*
X281049Y10978D01*
X281085Y11000D01*
X286915D01*
X286951Y10978D01*
X287605Y10707D01*
X288294Y10542D01*
X289000Y10486D01*
X289706Y10542D01*
X290395Y10707D01*
X291049Y10978D01*
X291085Y11000D01*
X291500D01*
Y2000D01*
X213000D01*
G37*
G36*
X313000Y9000D02*X324000Y20000D01*
Y9000D01*
X313000D01*
G37*
G36*
X328000Y55500D02*Y36500D01*
X286500D01*
Y47724D01*
X286819Y47699D01*
X287619Y47762D01*
X288400Y47950D01*
X289141Y48257D01*
X289826Y48676D01*
X290436Y49198D01*
X290958Y49808D01*
X291377Y50493D01*
X291684Y51234D01*
X291872Y52015D01*
X291919Y52815D01*
X291872Y53615D01*
X291684Y54396D01*
X291377Y55137D01*
X291155Y55500D01*
X302824D01*
X303000Y55486D01*
X303176Y55500D01*
X328000D01*
G37*
G54D12*X71055Y52815D02*X87000D01*
G54D13*X83500Y60500D02*X79750Y56750D01*
X67116D02*X63181Y52815D01*
X79750Y56750D02*X67116D01*
X67122Y64630D02*X63181Y60689D01*
G54D12*X83000Y36000D02*X101500Y54500D01*
G54D14*X113000Y29598D02*X89000D01*
X101598Y29571D02*Y18000D01*
G54D12*X120598Y41571D02*Y23500D01*
X54000Y36000D02*X83000D01*
X49500Y31500D02*X54000Y36000D01*
X49500Y23000D02*Y31500D01*
G54D13*X67122Y64630D02*X83370D01*
X84500Y63500D02*X83370Y64630D01*
X87000Y63500D02*X84500D01*
X78563Y68563D02*X71055D01*
X80000Y70000D02*X78563Y68563D01*
X87000Y70000D02*X80000D01*
X90500Y66500D02*X87000Y70000D01*
X94000D02*X91500Y72500D01*
X94000Y63500D02*Y70000D01*
X97500Y66500D02*Y71000D01*
X102000Y66500D02*Y69500D01*
X106500Y65000D02*Y68000D01*
X91500Y72500D02*X67118D01*
X92063Y76437D02*X71055D01*
X91120Y80380D02*X67124D01*
X90189Y84311D02*X71055D01*
X89250Y88250D02*X67116D01*
X71055Y92185D02*X88315D01*
X97500Y71000D02*X92063Y76437D01*
X102000Y69500D02*X91120Y80380D01*
X106500Y68000D02*X90189Y84311D01*
X113500Y64000D02*X89250Y88250D01*
X119500Y61000D02*X88315Y92185D01*
X120000Y85000D02*X116000D01*
X134500Y106000D02*X45000D01*
X135500Y108000D02*X44000D01*
X113500Y61000D02*Y64000D01*
X116000Y85000D02*X113000Y88000D01*
Y94500D01*
X118000Y99500D01*
X37000Y60000D02*X42000Y65000D01*
X31000Y56500D02*Y74000D01*
X34685Y52815D02*X31000Y56500D01*
X29000Y79500D02*Y33500D01*
X27000Y80500D02*Y33500D01*
X25500Y32000D01*
X29000Y33500D02*X30500Y32000D01*
X67118Y72500D02*X63181Y68563D01*
X67124Y80380D02*X63181Y76437D01*
X67116Y88250D02*X63181Y92185D01*
G54D12*X56311Y84311D02*X63181D01*
X47000Y75000D02*X56311Y84311D01*
G54D13*X63181Y52815D02*X34685D01*
X51311Y60689D02*X63181D01*
X47000Y65000D02*X51311Y60689D01*
X45000Y106000D02*X37000Y98000D01*
X44000Y108000D02*X35000Y99000D01*
X47000Y85000D02*Y102500D01*
X37000Y98000D02*Y87500D01*
X29000Y79500D01*
X35000Y88500D02*X27000Y80500D01*
X42000Y65000D02*Y98000D01*
X31000Y74000D02*X37000Y80000D01*
X35000Y99000D02*Y88500D01*
G54D15*X191500Y107000D02*X213000D01*
G54D13*X201000Y115000D03*
X215000Y110500D02*X190000D01*
X171500Y115000D02*X221500D01*
X169000Y119500D02*X250000D01*
X162476Y112976D02*X169000Y119500D01*
X170000Y117500D02*X228000D01*
X168775Y112275D02*X171500Y115000D01*
X219000Y113000D02*X183000D01*
X168775Y107736D02*Y112275D01*
X177000Y113000D02*X173000D01*
X171925Y111925D02*X173000Y113000D01*
X171925Y107736D02*Y111925D01*
X181374Y107736D02*Y111374D01*
X183000Y113000D01*
X178224Y111776D02*X177000Y113000D01*
X178224Y95724D02*Y111776D01*
X184523Y107736D02*X187236D01*
X190000Y110500D02*X187236Y107736D01*
X229500Y75000D02*X226500Y78000D01*
X225500Y73000D02*X224000Y74500D01*
X221500Y71000D02*X220000Y72500D01*
X233500Y77000D02*X232000Y78500D01*
X243000Y87500D02*X245000Y85500D01*
X162476Y107736D02*Y112976D01*
X165626Y113126D02*X170000Y117500D01*
X165626Y107736D02*Y113126D01*
X171925Y62457D02*Y78500D01*
G54D15*X184000Y99500D02*X191500Y107000D01*
G54D13*X195981Y99981D02*X198500Y102500D01*
X192279Y99981D02*X195981D01*
X192279Y96831D02*X198500D01*
X192279Y90532D02*X205957D01*
X175075Y105075D02*X170500Y100500D01*
X175075Y107736D02*Y105075D01*
X168775Y107736D02*Y99000D01*
X201118Y87382D02*X203000Y85500D01*
X192279Y87382D02*X201118D01*
X192279Y84233D02*X196267D01*
X199000Y81500D01*
X194500Y62457D02*X195457D01*
G54D15*X184000Y78500D02*X192957Y69543D01*
X194500D01*
G54D13*X209500Y65000D02*X208000Y66500D01*
X205500Y63000D02*X204000Y64500D01*
X205000Y78000D02*X226500D01*
X203000Y80000D02*X205000Y78000D01*
X203000Y85500D02*Y80000D01*
X217500Y69000D02*X216000Y70500D01*
X213500Y67000D02*X212000Y68500D01*
G54D15*X213000Y100543D02*Y107000D01*
X213043Y100500D02*X213000Y100543D01*
G54D13*X221500Y115000D02*X224000Y112500D01*
X213043Y90500D02*X222000D01*
X224000Y92500D01*
Y112500D02*Y92500D01*
X205957Y100500D02*Y90500D01*
X228000Y117500D02*X231000Y114500D01*
Y108457D02*X230957Y108500D01*
X220500Y111500D02*X219000Y113000D01*
X218500Y107000D02*X215000Y110500D01*
G54D12*X241500Y41500D02*X252500D01*
X232500Y50500D02*X241500Y41500D01*
G54D16*X252500Y31500D02*Y22000D01*
X222500Y31500D02*Y21500D01*
X212500Y31500D02*Y21500D01*
G54D12*X232500Y50500D02*X199000D01*
X194500Y55000D01*
Y62457D01*
G54D13*X231000Y108543D02*X230957Y108500D01*
X231000Y114500D02*Y108543D01*
Y99000D02*Y108457D01*
X233394Y96606D02*X231000Y99000D01*
X233394Y91000D02*Y96606D01*
G54D15*X247957Y108500D02*X238043D01*
G54D13*X255043Y114457D02*Y108500D01*
X250000Y119500D02*X255043Y114457D01*
X255000Y108457D02*X255043Y108500D01*
X255000Y99000D02*Y108457D01*
X252606Y96606D02*X255000Y99000D01*
G54D12*X278945Y97445D02*X282500Y101000D01*
X278945Y92185D02*Y97445D01*
G54D13*X256500Y85500D02*X276000Y105000D01*
X252606Y91000D02*Y96606D01*
X265220Y77000D02*X233500D01*
X267500Y75000D02*X229500D01*
X268500Y73000D02*X225500D01*
X271937Y76437D02*X268500Y73000D01*
X245000Y85500D02*X256500D01*
X274500Y71000D02*X221500D01*
X263500Y69000D02*X217500D01*
X262500Y67000D02*X213500D01*
X261500Y65000D02*X209500D01*
X260500Y63000D02*X205500D01*
X263937Y68563D02*X263500Y69000D01*
X259500Y61000D02*X201000D01*
X264870Y64630D02*X262500Y67000D01*
X276470Y88250D02*X265220Y77000D01*
X272870Y80370D02*X267500Y75000D01*
X282878Y80370D02*X272870D01*
X278945Y76437D02*X271937D01*
X282884Y88250D02*X276470D01*
X286819Y92185D02*X282884Y88250D01*
X286819Y84311D02*X282878Y80370D01*
X286819Y76437D02*X282882Y72500D01*
X276000D01*
X274500Y71000D01*
X286803Y68563D02*X282870Y64630D01*
G54D12*X293689Y47689D02*Y60689D01*
X289000Y43000D02*X293689Y47689D01*
X289000Y6000D02*Y43000D01*
X293689Y60689D02*X286819D01*
G54D13*Y68563D02*X286803D01*
X278945D02*X263937D01*
X282878Y64630D02*X264870D01*
X266750Y56750D02*X260500Y63000D01*
X265811Y60689D02*X261500Y65000D01*
X278945Y60689D02*X265811D01*
X267685Y52815D02*X259500Y61000D01*
X278945Y52815D02*X267685D01*
X286819D02*X282884Y56750D01*
X266750D01*
G54D12*X320000Y88000D02*X307000Y101000D01*
G54D13*X304815Y92185D02*X308000Y89000D01*
X308500Y105000D02*X324000Y89500D01*
X308000Y70000D02*Y89000D01*
G54D12*X282500Y101000D02*X307000D01*
G54D13*X286819Y92185D02*X304815D01*
X298689Y84311D02*X286819D01*
X276000Y105000D02*X308500D01*
X303000Y80000D02*X298689Y84311D01*
G54D12*X303000Y70000D02*X293689Y60689D01*
G54D13*X313000Y65000D02*X308000Y70000D01*
X317543Y23543D02*X309000Y15000D01*
X317543Y31000D02*Y23543D01*
X310457Y31000D02*X300905D01*
G54D12*X320000Y82000D02*Y88000D01*
X313000Y75000D02*X320000Y82000D01*
G54D13*X324000Y89500D02*Y65000D01*
X319000Y60000D01*
X303000D01*
X162477Y70178D02*X148822D01*
X165626Y62457D02*Y78500D01*
G54D12*X194500Y62457D02*X141543D01*
X128000Y76000D01*
G54D13*X148822Y70178D02*X138000Y81000D01*
X145000Y80000D02*X142000Y83000D01*
X148000Y80000D02*X145000D01*
X138000Y81000D02*Y87500D01*
X144067Y77933D02*X140000Y82000D01*
X142000Y83000D02*Y95500D01*
X154721Y77933D02*X144067D01*
X149083Y81083D02*X148000Y80000D01*
X154721Y81083D02*X149083D01*
X154721Y84232D02*X147000D01*
X154721Y87382D02*X147000D01*
X140000Y82000D02*Y94500D01*
X154721Y93681D02*X146819D01*
X175075Y92575D02*X178224Y95724D01*
X175075Y70178D02*Y92575D01*
G54D15*X154500Y108000D02*X152500D01*
X164500Y98000D02*X154500Y108000D01*
G54D13*X154721Y96831D02*X146669D01*
X128118Y99382D02*X128000Y99500D01*
X123000Y103000D02*Y94500D01*
X131000D02*X126000D01*
X135000Y99500D02*X128000D01*
X142000Y95500D02*X133500Y104000D01*
X138000Y87500D02*X131000Y94500D01*
X140000D02*X135000Y99500D01*
X146819Y93681D02*X134500Y106000D01*
X146669Y96831D02*X135500Y108000D01*
X133500Y104000D02*X124000D01*
X123000Y103000D01*
Y94500D02*X118000Y89500D01*
X126000Y94500D02*X123000Y91500D01*
Y88000D01*
X120000Y85000D01*
G54D12*X128000Y89500D02*Y76000D01*
G54D11*G36*
X229894Y94500D02*Y87500D01*
X236894D01*
Y94500D01*
X229894D01*
G37*
G54D17*X252606Y91000D03*
G54D11*G36*
X276345Y94785D02*Y89585D01*
X281545D01*
Y94785D01*
X276345D01*
G37*
G54D18*X286819Y92185D03*
G54D11*G36*
X249500Y54500D02*Y48500D01*
X255500D01*
Y54500D01*
X249500D01*
G37*
G54D19*X252500Y41500D03*
Y31500D03*
G54D20*X222500D03*
X212500D03*
G54D11*G36*
X198563Y35437D02*Y27563D01*
X206437D01*
Y35437D01*
X198563D01*
G37*
G54D18*X278945Y84311D03*
Y76437D03*
X286819Y84311D03*
Y76437D03*
X278945Y68563D03*
Y60689D03*
Y52815D03*
X286819Y68563D03*
Y60689D03*
Y52815D03*
G54D17*X303000Y60000D03*
X313000Y65000D03*
X303000Y70000D03*
X313000Y75000D03*
X303000Y80000D03*
X313000Y85000D03*
G54D21*X338000Y52500D03*
Y92500D03*
G54D11*G36*
X306000Y18000D02*Y12000D01*
X312000D01*
Y18000D01*
X306000D01*
G37*
G54D19*X299000Y15000D03*
X289000D03*
X279000D03*
X269000D03*
X259000D03*
G54D17*X47000Y85000D03*
X37000Y80000D03*
X47000Y75000D03*
X37000Y70000D03*
G54D21*X12000Y92500D03*
Y52500D03*
G54D17*X47000Y65000D03*
X37000Y60000D03*
G54D11*G36*
X68455Y55415D02*Y50215D01*
X73655D01*
Y55415D01*
X68455D01*
G37*
G54D18*X71055Y60689D03*
X63181Y52815D03*
Y60689D03*
G54D22*X101500Y54500D03*
G54D18*X71055Y68563D03*
Y76437D03*
X63181Y68563D03*
Y76437D03*
X71055Y84311D03*
Y92185D03*
X63181Y84311D03*
Y92185D03*
G54D11*G36*
X45500Y27000D02*Y19000D01*
X53500D01*
Y27000D01*
X45500D01*
G37*
G54D23*X69500Y23000D03*
G54D24*X101500Y30500D03*
X120500Y42500D03*
G54D11*G36*
X162000Y12500D02*Y6500D01*
X168000D01*
Y12500D01*
X162000D01*
G37*
G54D19*X175000Y9500D03*
X185000D03*
G54D11*G36*
X125000Y102500D02*Y96500D01*
X131000D01*
Y102500D01*
X125000D01*
G37*
G54D19*X118000Y99500D03*
X108000D03*
X128000Y89500D03*
X118000D03*
X108000D03*
G54D25*X194107Y62457D02*X194893D01*
X194107Y69543D02*X194893D01*
G54D26*X190066Y77934D02*X194492D01*
X190066Y81083D02*X194492D01*
X190066Y84233D02*X194492D01*
X190066Y87382D02*X194492D01*
X190066Y90532D02*X194492D01*
X190066Y93682D02*X194492D01*
X190066Y96831D02*X194492D01*
X190066Y99981D02*X194492D01*
G54D25*X205957Y90893D02*Y90107D01*
X213043Y90893D02*Y90107D01*
X205957Y100893D02*Y100107D01*
X213043Y100893D02*Y100107D01*
X230957Y108893D02*Y108107D01*
X238043Y108893D02*Y108107D01*
X255043Y108893D02*Y108107D01*
X247957Y108893D02*Y108107D01*
X310457Y31393D02*Y30607D01*
X317543Y31393D02*Y30607D01*
X289095Y32181D02*Y29819D01*
X221043Y15393D02*Y14607D01*
X213957Y15393D02*Y14607D01*
X300905Y32181D02*Y29819D01*
G54D26*X184523Y109949D02*Y105523D01*
X181374Y109949D02*Y105523D01*
X178224Y109949D02*Y105523D01*
X175075Y109949D02*Y105523D01*
X171925Y109949D02*Y105523D01*
X168775Y109949D02*Y105523D01*
X165626Y109949D02*Y105523D01*
X162476Y109949D02*Y105523D01*
G54D25*X152543Y108893D02*Y108107D01*
X145457Y108893D02*Y108107D01*
G54D26*X152508Y99980D02*X156934D01*
X152508Y96831D02*X156934D01*
X152508Y93681D02*X156934D01*
X152508Y90532D02*X156934D01*
X152508Y87382D02*X156934D01*
X152508Y84232D02*X156934D01*
X152508Y81083D02*X156934D01*
X152508Y77933D02*X156934D01*
X162477Y72391D02*Y67965D01*
G54D27*X157193Y32000D02*X163492D01*
X137508D02*X143807D01*
G54D28*X154018Y55576D02*Y54376D01*
X141118Y55576D02*Y54376D01*
G54D26*X165626Y72391D02*Y67965D01*
X168776Y72391D02*Y67965D01*
X171925Y72391D02*Y67965D01*
X175075Y72391D02*Y67965D01*
X178225Y72391D02*Y67965D01*
X181374Y72391D02*Y67965D01*
G54D25*X175245Y32405D02*X180755D01*
X175245Y20595D02*X180755D01*
G54D26*X184524Y72391D02*Y67965D01*
G54D29*X87000Y52815D03*
X42000Y98000D03*
X47000Y102500D03*
X83500Y60500D03*
X87000Y63500D03*
X89500Y102000D03*
X90500Y66500D03*
X94000Y63500D03*
X97500Y66500D03*
X102000D03*
X106500Y65000D03*
X113500Y61000D03*
X119500D03*
X30500Y32000D03*
X25500D03*
X89500Y112000D03*
X94500D03*
X99500D03*
X94500Y102000D03*
X99500D03*
X147000Y83500D03*
Y88000D03*
X139500Y110000D03*
Y115000D03*
Y120000D03*
X145000D03*
Y115000D03*
X199000Y90500D03*
X198500Y96831D03*
Y102500D03*
X228000Y76500D03*
X224000Y74500D03*
X220000Y72500D03*
X216000Y70500D03*
X212000Y68500D03*
X208000Y66500D03*
X204000Y64500D03*
X201000Y61000D03*
X199000Y81500D03*
X263000Y120500D03*
X268500D03*
X263000Y116500D03*
X268500D03*
X263000Y112500D03*
X268500D03*
X263000Y108500D03*
X268500D03*
X220500Y111500D03*
X232000Y78500D03*
X243000Y108500D03*
X213000Y107000D03*
X243000Y87500D03*
X218500Y107000D03*
G54D30*G54D31*G54D32*G54D33*G54D31*G54D14*G54D34*G54D32*G54D14*G54D34*G54D14*G54D31*G54D35*G54D31*G54D36*G54D37*G54D32*M02*
